<svg width="424" height="100" viewBox="0 0 424 100" fill="none" xmlns="http://www.w3.org/2000/svg">
<g clip-path="url(#clip0_13_105)">
<path fill-rule="evenodd" clip-rule="evenodd" d="M41.2333 14.47C40.49 14.4833 39.5233 14.51 39.0833 14.53C38.6433 14.55 37.8767 14.59 37.3833 14.62C36.89 14.6467 35.98 14.7067 35.3667 14.7533C34.7533 14.7967 33.7633 14.88 33.1667 14.9367C32.57 14.99 31.73 15.0733 31.3 15.1167C30.87 15.1633 30.1267 15.2467 29.65 15.3033C29.1733 15.36 28.34 15.4633 27.8 15.5367C27.26 15.61 26.42 15.7267 25.9333 15.8C25.4467 15.8733 24.75 15.9867 24.3833 16.0533C24.0167 16.1167 23.3933 16.2367 23 16.32C22.6067 16.4033 21.9667 16.5467 21.5833 16.6367C21.2 16.7267 20.6 16.8767 20.25 16.97C19.9 17.0633 19.3 17.2267 18.9167 17.3367C18.5333 17.4467 17.9 17.6367 17.5167 17.7533C17.1333 17.8733 16.5233 18.07 16.1667 18.19C15.81 18.31 15.2233 18.51 14.8667 18.64C14.51 18.77 13.9533 18.98 13.6333 19.11C13.3133 19.2367 12.8233 19.4467 12.55 19.5733C12.2733 19.7 11.87 19.9033 11.65 20.0233C11.43 20.1467 11.0933 20.34 10.9 20.46C10.7067 20.5767 10.3933 20.79 10.2 20.93C10.0067 21.0667 9.7 21.31 9.51667 21.47C9.33333 21.6267 9.07333 21.8733 8.93667 22.02C8.80333 22.1633 8.59 22.42 8.46667 22.5833C8.34667 22.7467 8.19 22.9733 8.12667 23.0833C8.06 23.1933 7.96 23.38 7.9 23.5C7.84 23.62 7.73333 23.89 7.66667 24.1C7.59667 24.31 7.51333 24.6267 7.48667 24.8C7.45333 24.99 7.43333 25.31 7.43333 25.6C7.43333 25.8667 7.45667 26.22 7.48 26.3833C7.50667 26.5467 7.55667 26.8033 7.59667 26.95C7.63333 27.0967 7.71667 27.3733 7.78333 27.5667C7.85 27.76 7.93333 27.98 7.97 28.0567C8.00333 28.1367 8.03333 28.22 8.03333 28.24C8.03333 28.2633 8.04667 28.2967 8.06 28.3167C8.07667 28.3367 8.14667 28.4933 8.21667 28.6667C8.28667 28.84 8.37667 29.0633 8.42 29.1567C8.46333 29.2533 8.5 29.3533 8.5 29.3733C8.5 29.3967 8.51333 29.43 8.53 29.45C8.54667 29.47 8.63 29.6633 8.71667 29.8833C8.80333 30.1033 8.89667 30.3267 8.92 30.3833C8.94333 30.44 8.99333 30.5533 9.03 30.64C9.07 30.73 9.1 30.82 9.1 30.84C9.1 30.8633 9.11333 30.8967 9.12667 30.9167C9.14333 30.9367 9.21333 31.0933 9.28333 31.2667C9.35333 31.44 9.44333 31.6633 9.48667 31.7567C9.53 31.8533 9.56667 31.9433 9.56667 31.9567C9.56667 31.9733 9.59667 32.0467 9.63333 32.1233C9.67 32.2033 9.7 32.2767 9.7 32.29C9.7 32.3067 9.73667 32.3967 9.78333 32.49C9.83 32.5867 9.86667 32.6767 9.86667 32.69C9.86667 32.7067 9.90667 32.8067 9.95667 32.9167C10.0033 33.0267 10.07 33.18 10.1033 33.2567C10.14 33.3367 10.1667 33.42 10.1667 33.44C10.1667 33.4633 10.18 33.4967 10.1933 33.5167C10.21 33.5367 10.28 33.6933 10.35 33.8667C10.42 34.04 10.51 34.2633 10.5533 34.3567C10.5967 34.4533 10.6333 34.5433 10.6333 34.5567C10.6333 34.5733 10.6633 34.6467 10.7 34.7233C10.7367 34.8033 10.7667 34.8867 10.7667 34.9067C10.7667 34.93 10.78 34.9633 10.7933 34.9833C10.81 35.0033 10.88 35.16 10.95 35.3333C11.02 35.5067 11.11 35.73 11.1533 35.8233C11.1967 35.92 11.2333 36.02 11.2333 36.04C11.2333 36.0633 11.2467 36.0967 11.2633 36.1167C11.28 36.1367 11.3633 36.33 11.45 36.55C11.5367 36.77 11.63 36.9933 11.6533 37.05C11.6767 37.1067 11.7267 37.22 11.7633 37.3067C11.8033 37.3967 11.8333 37.4867 11.8333 37.5067C11.8333 37.53 11.8467 37.5633 11.86 37.5833C11.8767 37.6033 11.9467 37.76 12.0167 37.9333C12.0867 38.1067 12.1767 38.33 12.22 38.4233C12.2633 38.52 12.3 38.61 12.3 38.6233C12.3 38.64 12.33 38.7133 12.3667 38.79C12.4033 38.87 12.4333 38.9433 12.4333 38.9567C12.4333 38.9733 12.47 39.0633 12.5167 39.1567C12.5633 39.2533 12.6 39.3433 12.6 39.3567C12.6 39.3733 12.64 39.4733 12.69 39.5833C12.7367 39.6933 12.8033 39.8467 12.8367 39.9233C12.8733 40.0033 12.9 40.0867 12.9 40.1067C12.9 40.13 12.9133 40.1633 12.9267 40.1833C12.9433 40.2033 13.0133 40.36 13.0833 40.5333C13.1533 40.7067 13.2433 40.93 13.2867 41.0233C13.33 41.12 13.3667 41.21 13.3667 41.2233C13.3667 41.24 13.4167 41.3567 13.48 41.4833C13.5433 41.61 13.62 41.74 13.65 41.7667C13.68 41.7933 13.7033 41.8267 13.7 41.84C13.7 41.8567 13.7533 41.92 13.8167 41.9833C13.88 42.0467 13.95 42.1 13.9667 42.1C13.9833 42.1 14.02 42.13 14.0433 42.1667C14.0633 42.2033 14.1033 42.2333 14.1267 42.2333C14.1467 42.2333 14.1667 42.2467 14.1667 42.2667C14.1667 42.2867 14.1967 42.3 14.2333 42.3C14.27 42.3 14.3 42.3133 14.3 42.3333C14.3 42.3533 14.33 42.3667 14.3667 42.3667C14.4033 42.3667 14.4333 42.38 14.4333 42.4C14.4333 42.42 14.4767 42.4333 14.5333 42.4333C14.59 42.4333 14.6333 42.4433 14.6333 42.4567C14.6333 42.4733 14.8033 42.4967 15.0067 42.51C15.3567 42.5333 15.4 42.53 15.6167 42.4567C15.7433 42.4133 16.0533 42.2733 16.3 42.15C16.5467 42.0233 16.8033 41.8867 16.8667 41.8433C16.93 41.8033 17.0067 41.7467 17.0333 41.72C17.06 41.69 17.1 41.6667 17.12 41.6667C17.14 41.6667 17.2 41.6233 17.2533 41.5667C17.3067 41.5133 17.37 41.4667 17.3933 41.4667C17.4133 41.4667 17.6267 41.2733 17.8667 41.0333C18.1067 40.7933 18.3 40.5767 18.3 40.55C18.3 40.5233 18.31 40.4967 18.3267 40.49C18.34 40.4867 18.3933 40.4233 18.45 40.35C18.5033 40.2767 18.6 40.1467 18.6567 40.0567C18.7167 39.97 18.7667 39.8933 18.7667 39.8833C18.7667 39.8733 18.81 39.8033 18.86 39.7233C18.9133 39.6467 19.01 39.47 19.0767 39.3333C19.1433 39.1967 19.2 39.0733 19.2 39.0567C19.2 39.0433 19.2367 38.9533 19.28 38.8567C19.3267 38.7633 19.4033 38.5633 19.45 38.4167C19.5 38.27 19.5767 38.0067 19.6233 37.8333C19.6667 37.66 19.74 37.3067 19.7833 37.05C19.8267 36.7933 19.88 36.3733 19.9 36.1167C19.9233 35.8467 19.93 35.3633 19.92 34.9667C19.91 34.59 19.8933 34.12 19.8833 33.9167C19.87 33.7133 19.8467 33.5367 19.83 33.5167C19.8133 33.4967 19.8 33.3833 19.8 33.2567C19.8 33.1333 19.79 33.0267 19.7767 33.02C19.76 33.0133 19.7367 32.7767 19.7233 32.4967C19.7067 32.1633 19.7067 31.8767 19.73 31.6833C19.75 31.52 19.8 31.2567 19.84 31.1C19.8767 30.9433 19.94 30.75 19.9733 30.6667C20.01 30.5833 20.06 30.4733 20.0867 30.4167C20.1133 30.36 20.1633 30.2633 20.2 30.2C20.24 30.1367 20.2867 30.06 20.31 30.0333C20.3333 30.0067 20.37 29.9467 20.3933 29.9C20.4167 29.8533 20.5667 29.68 20.7267 29.51C20.8867 29.34 21.0333 29.2 21.05 29.2C21.0667 29.2 21.15 29.1367 21.2333 29.0633C21.3167 28.99 21.41 28.9233 21.4433 28.9133C21.4733 28.9067 21.5 28.89 21.5 28.8733C21.4967 28.86 21.5433 28.8267 21.6 28.8C21.6567 28.7733 21.7 28.7433 21.7 28.7333C21.7 28.7233 21.93 28.6 22.2167 28.4567C22.5 28.3167 22.7533 28.2 22.7767 28.2C22.8 28.2 22.8333 28.1867 22.85 28.17C22.87 28.1533 23.0633 28.08 23.2833 28.0067C23.5033 27.9333 23.8567 27.8267 24.0667 27.7733C24.2767 27.7167 24.6233 27.6333 24.8333 27.5867C25.0433 27.54 25.4033 27.4733 25.6333 27.4367C25.8633 27.4 26.1933 27.3533 26.3667 27.3367C26.54 27.3167 26.8867 27.2867 27.1333 27.2633C27.38 27.2433 28.1767 27.23 28.9 27.23C29.74 27.2333 30.23 27.2467 30.25 27.2667C30.2667 27.2867 30.4367 27.3 30.6267 27.3C30.82 27.3 30.9733 27.3133 30.9833 27.3333C30.9933 27.3533 31.12 27.3667 31.2667 27.3667C31.4233 27.3667 31.5333 27.38 31.5333 27.4C31.5333 27.42 31.6333 27.4333 31.7667 27.4333C31.9 27.4333 32 27.4467 32 27.4667C32 27.4867 32.09 27.5 32.2 27.5C32.31 27.5 32.4067 27.5133 32.4167 27.5333C32.4267 27.5533 32.5167 27.5667 32.6167 27.5667C32.7167 27.5667 32.8 27.58 32.8 27.6C32.8 27.62 32.8767 27.6333 32.9667 27.6333C33.06 27.6333 33.14 27.6467 33.15 27.6667C33.16 27.6867 33.2333 27.7 33.3167 27.7C33.4 27.7 33.4667 27.7133 33.4667 27.7333C33.4667 27.7533 33.5333 27.7667 33.6167 27.7667C33.7 27.7667 33.7667 27.78 33.7667 27.8C33.7667 27.82 33.8333 27.8333 33.9167 27.8333C34 27.8333 34.0667 27.8467 34.0667 27.8667C34.0667 27.8867 34.1267 27.9 34.2 27.9C34.2733 27.9 34.3333 27.9133 34.3333 27.9333C34.3333 27.9533 34.3933 27.9667 34.4667 27.9667C34.54 27.9667 34.6 27.98 34.6 28C34.6 28.02 34.66 28.0333 34.7333 28.0333C34.8067 28.0333 34.8667 28.0467 34.8667 28.0667C34.8667 28.0867 34.92 28.1 34.9833 28.1C35.0467 28.1 35.1 28.1133 35.1 28.1333C35.1 28.1533 35.1533 28.1667 35.2167 28.1667C35.28 28.1667 35.3333 28.18 35.3333 28.2C35.3333 28.22 35.3867 28.2333 35.45 28.2333C35.5133 28.2333 35.5667 28.2467 35.5667 28.2667C35.5667 28.2867 35.61 28.3 35.6667 28.3C35.7233 28.3 35.7667 28.3133 35.7667 28.3333C35.7667 28.3533 35.82 28.3667 35.8833 28.3667C35.9467 28.3667 36 28.38 36 28.4C36 28.42 36.0433 28.4333 36.1 28.4333C36.1567 28.4333 36.2 28.4467 36.2 28.4667C36.2 28.4867 36.2433 28.5 36.3 28.5C36.3567 28.5 36.4 28.5133 36.4 28.5333C36.4 28.5533 36.4433 28.5667 36.5 28.5667C36.5567 28.5667 36.6 28.58 36.6 28.6C36.6 28.62 36.6433 28.6333 36.7 28.6333C36.7567 28.6333 36.8 28.6467 36.8 28.6667C36.8 28.6867 36.8433 28.7 36.9 28.7C36.9567 28.7 37 28.7133 37 28.7333C37 28.7533 37.0367 28.7667 37.0833 28.7667C37.13 28.7667 37.1667 28.78 37.1667 28.8C37.1667 28.82 37.2033 28.8333 37.25 28.8333C37.2967 28.8333 37.3333 28.8467 37.3333 28.8667C37.3333 28.8867 37.3767 28.9 37.4333 28.9C37.49 28.9 37.5333 28.9133 37.5333 28.9333C37.5333 28.9533 37.57 28.9667 37.6167 28.9667C37.6633 28.9667 37.7 28.98 37.7 29C37.7 29.02 37.7367 29.0333 37.7833 29.0333C37.83 29.0333 37.8667 29.0467 37.8667 29.0667C37.8667 29.0867 37.9033 29.1 37.95 29.1C37.9967 29.1 38.0333 29.1133 38.0333 29.1333C38.0333 29.1533 38.0633 29.1667 38.1 29.1667C38.1367 29.1667 38.1667 29.18 38.1667 29.2C38.1667 29.22 38.2033 29.2333 38.25 29.2333C38.2967 29.2333 38.3333 29.2467 38.3333 29.2667C38.3333 29.2867 38.3633 29.3 38.4 29.3C38.4367 29.3 38.4667 29.3133 38.4667 29.3333C38.4667 29.3533 38.4967 29.3667 38.5333 29.3667C38.57 29.3667 38.6 29.38 38.6 29.4C38.6 29.42 38.63 29.4333 38.6667 29.4333C38.7033 29.4333 38.7333 29.4467 38.7333 29.4667C38.7333 29.4867 38.7633 29.5 38.8 29.5C38.8367 29.5 38.8667 29.5133 38.8667 29.5333C38.8667 29.5533 38.8967 29.5667 38.9333 29.5667C38.97 29.5667 39 29.58 39 29.6C39 29.62 39.03 29.6333 39.0667 29.6333C39.1033 29.6333 39.1333 29.6467 39.1333 29.6667C39.1333 29.6867 39.1633 29.7 39.2 29.7C39.2367 29.7 39.2667 29.7133 39.2667 29.7333C39.2667 29.7533 39.2967 29.7667 39.3333 29.7667C39.37 29.7667 39.4 29.78 39.4 29.8C39.4 29.82 39.4267 29.8333 39.46 29.8333C39.49 29.8333 39.55 29.8633 39.5933 29.9C39.6333 29.9367 39.69 29.9667 39.7167 29.9667C39.7433 29.9667 39.7667 29.98 39.7667 30C39.7667 30.02 39.79 30.0333 39.8167 30.0333C39.8433 30.0333 39.8667 30.0467 39.8667 30.0667C39.8667 30.0867 39.8933 30.1 39.9267 30.1C39.9567 30.1 40.0167 30.13 40.06 30.1667C40.1 30.2033 40.1567 30.2333 40.1833 30.2333C40.21 30.2333 40.2333 30.2467 40.2333 30.2667C40.2333 30.2867 40.2533 30.3 40.2767 30.3C40.2967 30.3 40.35 30.33 40.3933 30.3667C40.4333 30.4033 40.48 30.4333 40.5 30.4333C40.52 30.4333 40.5333 30.4467 40.5333 30.4667C40.5333 30.4867 40.5567 30.5 40.5833 30.5C40.61 30.5 40.6333 30.5133 40.6333 30.5333C40.6333 30.5533 40.6633 30.5667 40.7 30.5667C40.7367 30.5667 40.7667 30.58 40.7667 30.6C40.7667 30.62 40.7867 30.6333 40.81 30.6333C40.83 30.6333 40.88 30.66 40.9167 30.69C40.9533 30.7233 41.0233 30.7733 41.0767 30.8C41.1267 30.8267 41.1667 30.86 41.1667 30.8733C41.1667 30.89 41.1867 30.9 41.21 30.9C41.23 30.9 41.2833 30.93 41.3267 30.9667C41.3667 31.0033 41.4133 31.0333 41.4333 31.0333C41.4533 31.0333 41.4867 31.0633 41.51 31.1C41.53 31.1367 41.57 31.1667 41.5933 31.1667C41.6133 31.1667 41.6333 31.18 41.6333 31.2C41.6333 31.22 41.6533 31.2333 41.6767 31.2333C41.6967 31.2333 41.75 31.2633 41.7933 31.3C41.8333 31.3367 41.88 31.3667 41.9 31.3667C41.92 31.3667 41.9533 31.3967 41.9767 31.4333C41.9967 31.47 42.0367 31.5 42.06 31.5C42.08 31.5 42.1 31.5133 42.1 31.5333C42.1 31.5533 42.1233 31.5667 42.15 31.5667C42.1767 31.5667 42.22 31.5967 42.2433 31.6333C42.2633 31.67 42.2967 31.7 42.3167 31.7C42.3367 31.7 42.3733 31.73 42.4 31.7667C42.4267 31.8033 42.47 31.8333 42.4933 31.8333C42.5133 31.8333 42.5533 31.8633 42.5767 31.9C42.5967 31.9367 42.63 31.9667 42.65 31.9667C42.67 31.9667 42.7067 31.9967 42.7333 32.0333C42.76 32.07 42.8033 32.1 42.8267 32.1C42.8467 32.1 42.8867 32.13 42.91 32.1667C42.93 32.2033 42.96 32.2333 42.9767 32.2333C42.99 32.2333 43.0433 32.2767 43.1 32.3333C43.1567 32.39 43.2133 32.4333 43.2333 32.4333C43.2533 32.4333 43.3033 32.4767 43.35 32.5333C43.3967 32.59 43.44 32.6333 43.45 32.6333C43.46 32.6333 43.5233 32.69 43.5933 32.76C43.66 32.83 43.7333 32.8933 43.7567 32.9033C43.7767 32.91 43.9933 33.1133 44.24 33.3533C44.4833 33.59 44.82 33.93 44.9833 34.1067C45.1467 34.28 45.38 34.5333 45.5 34.6667C45.62 34.7967 45.73 34.93 45.75 34.96C45.7667 34.9933 45.8433 35.0833 45.9233 35.1667C46.0033 35.25 46.0667 35.3267 46.0667 35.34C46.0667 35.3567 46.1267 35.43 46.2 35.5067C46.2733 35.5867 46.33 35.6567 46.33 35.6667C46.33 35.6767 46.3767 35.7367 46.43 35.8C46.4867 35.8633 46.5333 35.9233 46.53 35.9333C46.53 35.9433 46.5767 36.0033 46.63 36.0667C46.6867 36.13 46.7333 36.19 46.7333 36.2C46.73 36.21 46.77 36.26 46.8167 36.3167C46.8633 36.3733 46.9 36.4267 46.9 36.44C46.9 36.4567 46.9233 36.4933 46.9533 36.5233C46.9833 36.5567 47.1633 36.82 47.3533 37.1067C47.5433 37.3967 47.7 37.64 47.7 37.65C47.7 37.66 47.7433 37.7333 47.8 37.8167C47.8567 37.9 47.9 37.9767 47.9 37.99C47.9 38.0067 47.9233 38.04 47.9467 38.0667C47.9733 38.0933 48.0367 38.2 48.09 38.3033C48.14 38.4033 48.2 38.51 48.22 38.5367C48.2433 38.5633 48.42 38.9033 48.6133 39.29C48.8067 39.68 48.9667 40.0133 48.9667 40.0333C48.9667 40.0533 48.9933 40.1167 49.0267 40.1733C49.06 40.2333 49.1133 40.35 49.15 40.4333C49.1833 40.5167 49.2467 40.6633 49.29 40.7567C49.3333 40.8533 49.3667 40.9533 49.3667 40.9733C49.3667 40.9967 49.38 41.03 49.3933 41.05C49.41 41.07 49.4567 41.18 49.4967 41.3C49.5367 41.42 49.59 41.56 49.6167 41.6167C49.64 41.6733 49.7333 41.95 49.8267 42.2333C49.92 42.5167 50.0467 42.9367 50.1133 43.1667C50.1767 43.3967 50.2767 43.7767 50.3333 44.0167C50.39 44.2567 50.4767 44.63 50.52 44.85C50.5667 45.07 50.64 45.4967 50.6833 45.8C50.73 46.1033 50.7967 46.6367 50.8333 46.9833C50.8667 47.33 50.9133 47.8333 50.9333 48.1C50.9533 48.3667 50.9833 48.8767 51 49.2333C51.0167 49.59 51.0333 50.5667 51.0333 51.4C51.0333 52.2333 51.0167 53.21 51 53.5667C50.98 53.9233 50.9433 54.5167 50.9167 54.8833C50.8867 55.25 50.8267 55.8867 50.78 56.3C50.7367 56.7133 50.66 57.3067 50.6133 57.6167C50.5667 57.9267 50.4767 58.4667 50.4133 58.8167C50.35 59.1667 50.2367 59.7133 50.1667 60.0333C50.0933 60.3533 49.96 60.8933 49.87 61.2333C49.78 61.5733 49.61 62.1367 49.4967 62.4833C49.3833 62.83 49.2167 63.31 49.1267 63.55C49.0367 63.79 48.8733 64.1933 48.76 64.45C48.65 64.7067 48.4567 65.12 48.3333 65.3667C48.21 65.6133 47.9933 66.02 47.85 66.2667C47.7067 66.5133 47.4433 66.9333 47.2667 67.2C47.0867 67.4667 46.7767 67.8867 46.58 68.1333C46.38 68.38 45.98 68.8233 45.6833 69.1167C45.39 69.4133 44.9867 69.7833 44.7833 69.9467C44.58 70.1067 44.23 70.3633 44 70.5167C43.77 70.67 43.42 70.8867 43.2167 70.9967C43.0133 71.11 42.67 71.28 42.45 71.38C42.23 71.48 41.86 71.63 41.6233 71.7133C41.39 71.7967 41.0533 71.9033 40.8767 71.9467C40.6967 71.9933 40.4367 72.0467 40.3 72.0733C40.1367 72.1 39.77 72.1167 39.25 72.1167C38.57 72.1167 38.39 72.1033 38.05 72.0433C37.83 72 37.5367 71.9367 37.4 71.9C37.2633 71.8633 37.0833 71.81 37 71.7867C36.9167 71.76 36.7833 71.7133 36.7 71.6833C36.6167 71.6533 36.35 71.53 36.1067 71.4067C35.8633 71.2833 35.6633 71.1733 35.6667 71.1567C35.6667 71.1433 35.6467 71.1333 35.6267 71.1333C35.6033 71.1333 35.55 71.1033 35.51 71.0667C35.4667 71.03 35.4233 71 35.41 71C35.3933 71.0033 35.3333 70.9567 35.2767 70.9C35.2167 70.8467 35.1567 70.8 35.1433 70.8C35.1267 70.8 34.9867 70.67 34.8233 70.5067C34.6633 70.3467 34.5333 70.2067 34.5333 70.19C34.5333 70.1767 34.4867 70.1167 34.4333 70.0567C34.3767 70 34.33 69.94 34.3333 69.9233C34.3333 69.91 34.3033 69.8667 34.2667 69.8233C34.23 69.7833 34.2 69.73 34.2 69.7067C34.2 69.6867 34.1867 69.6667 34.1667 69.6667C34.1467 69.6667 34.1333 69.6367 34.1333 69.6C34.1333 69.5633 34.12 69.5333 34.1 69.5333C34.08 69.5333 34.0667 69.51 34.0667 69.4833C34.0667 69.4567 34.0533 69.4333 34.0333 69.4333C34.0133 69.4333 34 69.41 34 69.3833C34 69.3567 33.9867 69.3333 33.9667 69.3333C33.9467 69.3333 33.9333 69.31 33.9333 69.2833C33.9333 69.2567 33.92 69.2333 33.9 69.2333C33.88 69.2333 33.8667 69.22 33.8667 69.2C33.8667 69.18 33.82 69.1167 33.7667 69.0567C33.71 69 33.6633 68.93 33.6667 68.9067C33.6667 68.8867 33.6533 68.8667 33.6333 68.8667C33.6133 68.8667 33.6 68.8467 33.6 68.8233C33.6 68.8033 33.57 68.7633 33.5333 68.74C33.4967 68.72 33.4667 68.6867 33.4667 68.6667C33.4667 68.6467 33.4067 68.57 33.3333 68.49C33.26 68.4133 33.2 68.3367 33.2 68.3167C33.1967 68.2967 32.9567 68.0467 32.6667 67.7567C32.3733 67.47 32.1233 67.2333 32.1067 67.2333C32.0933 67.2333 32.03 67.1833 31.9667 67.1233C31.9033 67.0667 31.7933 66.98 31.7267 66.9333C31.6567 66.8867 31.6 66.84 31.6 66.8233C31.6 66.81 31.5833 66.8 31.5667 66.8C31.55 66.8 31.4633 66.7533 31.3767 66.6967C31.2867 66.6367 31.06 66.5133 30.8667 66.4167C30.6733 66.32 30.4633 66.22 30.4 66.19C30.3367 66.1633 30.1933 66.11 30.0833 66.0733C29.9733 66.0367 29.7867 65.9833 29.6667 65.9533C29.5467 65.9233 29.3 65.88 29.1167 65.85C28.9333 65.8233 28.64 65.8 28.4667 65.8C28.2933 65.8 28.0167 65.8167 27.85 65.8367C27.6833 65.8567 27.4067 65.91 27.2333 65.9533C27.06 66 26.7833 66.1 26.6167 66.18C26.45 66.26 26.2 66.4167 26.0567 66.53C25.9167 66.64 25.73 66.82 25.64 66.9233C25.5533 67.03 25.4267 67.2067 25.36 67.3167C25.2933 67.4267 25.2 67.6133 25.1533 67.7333C25.1067 67.8533 25.0433 68.04 25.0167 68.15C24.9867 68.26 24.9533 68.5067 24.9433 68.7C24.9333 68.8933 24.94 69.1567 24.96 69.2833C24.98 69.41 25.0267 69.6067 25.0633 69.7167C25.1 69.8267 25.1833 70.0533 25.25 70.2167C25.3167 70.38 25.4 70.58 25.4333 70.6567C25.47 70.7367 25.5 70.81 25.5 70.8233C25.5 70.84 25.53 70.9133 25.5667 70.99C25.6033 71.07 25.6333 71.1533 25.6333 71.1733C25.6333 71.1967 25.6467 71.23 25.66 71.25C25.6767 71.27 25.7467 71.4267 25.8167 71.6C25.8867 71.7733 25.9767 71.9967 26.02 72.09C26.0633 72.1867 26.1 72.2867 26.1 72.3067C26.1 72.33 26.1133 72.3633 26.13 72.3833C26.1467 72.4033 26.23 72.5967 26.3167 72.8167C26.4033 73.0367 26.4967 73.26 26.52 73.3167C26.5433 73.3733 26.5933 73.4867 26.63 73.5733C26.67 73.6633 26.7 73.7533 26.7 73.7733C26.7 73.7967 26.7133 73.83 26.7267 73.85C26.7433 73.87 26.8133 74.0267 26.8833 74.2C26.9533 74.3733 27.0433 74.5967 27.0867 74.69C27.13 74.7867 27.1667 74.8867 27.1667 74.9067C27.1667 74.93 27.18 74.9633 27.1967 74.9833C27.2133 75.0033 27.2967 75.1967 27.3833 75.4167C27.47 75.6367 27.5633 75.86 27.5867 75.9167C27.61 75.9733 27.66 76.0867 27.6967 76.1733C27.7367 76.2633 27.7667 76.3533 27.7667 76.3733C27.7667 76.3967 27.78 76.43 27.7933 76.45C27.81 76.47 27.88 76.6267 27.95 76.8C28.02 76.9733 28.11 77.1967 28.1533 77.29C28.1967 77.3867 28.2333 77.4767 28.2333 77.49C28.2333 77.5067 28.3267 77.7033 28.44 77.9333C28.5533 78.1633 28.66 78.3633 28.6733 78.3833C28.69 78.4033 28.7667 78.5133 28.8433 78.63C28.92 78.7467 29 78.8667 29.0167 78.8933C29.0333 78.92 29.1067 79.0067 29.1767 79.08C29.2433 79.1567 29.3 79.2267 29.3 79.24C29.3 79.2567 29.4567 79.4233 29.65 79.6167C29.8433 79.81 30.0167 79.9667 30.0333 79.9667C30.05 79.9667 30.1033 80.01 30.15 80.0667C30.1967 80.1233 30.25 80.1667 30.2667 80.1667C30.2833 80.1667 30.3 80.18 30.3 80.2C30.3 80.22 30.3233 80.2333 30.35 80.2333C30.3767 80.2333 30.42 80.2633 30.4433 80.3C30.4633 80.3367 30.5033 80.3667 30.5267 80.3667C30.5467 80.3667 30.5667 80.38 30.5667 80.4C30.5667 80.42 30.59 80.4333 30.6167 80.4333C30.6433 80.4333 30.6667 80.4467 30.6667 80.4667C30.6667 80.4867 30.69 80.5 30.7167 80.5C30.7433 80.5 30.7667 80.5133 30.7667 80.5333C30.7667 80.5533 30.7967 80.5667 30.8333 80.5667C30.87 80.5667 30.9 80.58 30.9 80.6C30.9 80.62 30.9233 80.6333 30.95 80.6333C30.9767 80.6333 31 80.6467 31 80.6667C31 80.6867 31.0267 80.7 31.06 80.7C31.09 80.7 31.15 80.73 31.1933 80.7667C31.2333 80.8033 31.29 80.8333 31.3167 80.8333C31.3433 80.8333 31.3667 80.8467 31.3667 80.8667C31.3667 80.8867 31.3967 80.9 31.4333 80.9C31.47 80.9 31.5 80.9133 31.5 80.9333C31.5 80.9533 31.5367 80.9667 31.5833 80.9667C31.63 80.9667 31.6667 80.98 31.6667 81C31.6667 81.02 31.7033 81.0333 31.75 81.0333C31.7967 81.0333 31.8333 81.0467 31.8333 81.0667C31.8333 81.0867 31.87 81.1 31.9167 81.1C31.9633 81.1 32 81.1133 32 81.1333C32 81.1533 32.0367 81.1667 32.0833 81.1667C32.13 81.1667 32.1667 81.18 32.1667 81.2C32.1667 81.22 32.21 81.2333 32.2667 81.2333C32.3233 81.2333 32.3733 81.2467 32.3833 81.2667C32.3933 81.2867 32.4533 81.3 32.5167 81.3C32.58 81.3 32.6333 81.3133 32.6333 81.3333C32.6333 81.3533 32.6933 81.3667 32.7667 81.3667C32.84 81.3667 32.9 81.38 32.9 81.4C32.9 81.42 32.9833 81.4333 33.0833 81.4333C33.1833 81.4333 33.2667 81.4467 33.2667 81.4667C33.2667 81.4867 33.3967 81.5067 33.56 81.52C33.72 81.53 36.05 81.5433 38.7433 81.5533C41.4333 81.56 43.6333 81.5567 43.6333 81.54C43.6333 81.5267 43.8167 81.5033 44.04 81.49C44.2667 81.4767 44.6667 81.44 44.9333 81.4133C45.2 81.3867 45.6867 81.3267 46.0167 81.28C46.3467 81.2333 46.7367 81.1767 46.8833 81.15C47.03 81.1267 47.3767 81.06 47.65 81.0033C47.9267 80.95 48.2567 80.88 48.3833 80.85C48.51 80.82 48.7433 80.7667 48.9 80.7267C49.0567 80.69 49.22 80.65 49.2667 80.6333C49.3133 80.6167 49.5233 80.5567 49.7333 80.5C49.9433 80.4433 50.2733 80.3467 50.4667 80.2833C50.66 80.2233 50.9 80.15 51 80.12C51.1 80.09 51.2133 80.05 51.25 80.0333C51.2867 80.0167 51.4533 79.9567 51.6167 79.9C51.78 79.8433 51.9467 79.7833 51.9833 79.7667C52.02 79.75 52.2667 79.65 52.5333 79.5467C52.8 79.4433 53.07 79.3367 53.1333 79.3067C53.1967 79.28 53.39 79.19 53.56 79.11C53.7267 79.0333 53.8767 78.9667 53.8933 78.9667C53.9067 78.9667 54.2367 78.8067 54.6267 78.6167C55.0133 78.4233 55.3433 78.2667 55.36 78.2667C55.3733 78.2667 55.6767 78.12 56.0333 77.9433C56.39 77.7667 56.69 77.61 56.7 77.6C56.71 77.5867 56.95 77.46 57.2333 77.3167C57.5167 77.17 57.7733 77.0367 57.8 77.0133C57.8267 76.9933 57.97 76.9133 58.1167 76.8367C58.2633 76.76 58.3967 76.6833 58.4167 76.6667C58.4367 76.6533 58.5333 76.5967 58.6333 76.5433C58.7333 76.49 58.88 76.4067 58.96 76.3567C59.0367 76.3067 59.1067 76.2667 59.1167 76.2667C59.1267 76.2667 59.2 76.2233 59.2833 76.1667C59.3667 76.11 59.4467 76.0667 59.4633 76.0667C59.48 76.0667 59.5167 76.0467 59.54 76.0233C59.5633 75.9967 59.6367 75.9467 59.7 75.9133C59.7633 75.8767 59.88 75.8067 59.96 75.7567C60.0367 75.7067 60.11 75.6667 60.1267 75.6667C60.14 75.67 60.18 75.6367 60.2167 75.6C60.2533 75.5633 60.3 75.53 60.3233 75.5333C60.3433 75.5333 60.3833 75.5133 60.4067 75.4867C60.43 75.4633 60.51 75.41 60.5833 75.3733C60.6567 75.3367 60.74 75.28 60.7667 75.25C60.7933 75.22 60.8267 75.1967 60.8433 75.2C60.8567 75.2 60.9233 75.1633 60.9933 75.1167C61.06 75.07 61.1367 75.02 61.16 75C61.18 74.9833 61.2367 74.9467 61.2833 74.9233C61.33 74.9033 61.3667 74.8767 61.3667 74.8667C61.3667 74.8567 61.41 74.8267 61.4667 74.8C61.5233 74.7733 61.5667 74.7433 61.5667 74.7333C61.5667 74.7233 61.61 74.6933 61.6667 74.6667C61.7233 74.64 61.7667 74.61 61.7667 74.6C61.7667 74.59 61.81 74.56 61.8667 74.5333C61.9233 74.5067 61.9667 74.4767 61.9667 74.4667C61.9667 74.4567 62.01 74.4267 62.0667 74.4C62.1233 74.3733 62.1667 74.3433 62.1667 74.3333C62.1667 74.3233 62.21 74.2933 62.2667 74.2667C62.3233 74.24 62.3667 74.21 62.3667 74.2C62.3667 74.19 62.4033 74.1633 62.45 74.14C62.4967 74.12 62.5533 74.0867 62.5767 74.0667C62.5967 74.05 62.6667 73.9967 62.7267 73.95C62.7833 73.9033 62.8433 73.8667 62.86 73.8667C62.8733 73.8667 62.92 73.8333 62.9667 73.79C63.0133 73.7467 63.0867 73.69 63.1333 73.6667C63.18 73.6433 63.23 73.61 63.25 73.5933C63.27 73.58 63.3333 73.53 63.3933 73.4833C63.45 73.4367 63.51 73.4 63.5267 73.4C63.54 73.4 63.5867 73.3667 63.6333 73.3267C63.68 73.2833 63.7733 73.2133 63.84 73.1667C63.91 73.12 63.9667 73.0767 63.9667 73.0667C63.9633 73.0567 64.01 73.0267 64.0667 73C64.1233 72.9733 64.1767 72.93 64.1833 72.9067C64.1933 72.8867 64.22 72.8667 64.2433 72.8667C64.27 72.8667 64.3333 72.8233 64.3867 72.7667C64.44 72.7133 64.4967 72.6667 64.5167 72.6667C64.5367 72.6667 64.6033 72.62 64.6667 72.5633C64.73 72.51 64.79 72.4633 64.8 72.4667C64.81 72.4667 64.8533 72.4333 64.9 72.3933C64.9467 72.35 65.0367 72.28 65.1 72.2367C65.1633 72.19 65.2267 72.1367 65.2433 72.11C65.2567 72.0867 65.2867 72.0667 65.31 72.0667C65.3367 72.0667 65.4 72.0233 65.4533 71.9667C65.5067 71.9133 65.5633 71.8667 65.5833 71.8667C65.6033 71.8667 65.6833 71.8067 65.7667 71.7333C65.85 71.6567 65.9233 71.5967 65.9333 71.5967C65.9433 71.6 66.0033 71.5533 66.0667 71.4967C66.13 71.4433 66.19 71.4 66.2 71.4C66.21 71.4 66.27 71.3533 66.3367 71.2933C66.4 71.2333 66.5067 71.1467 66.57 71.1033C66.6333 71.0567 66.6933 71.0033 66.71 70.9767C66.7233 70.9533 66.7533 70.9333 66.7767 70.9333C66.7967 70.9333 66.8767 70.8733 66.95 70.8C67.0233 70.73 67.0967 70.67 67.1167 70.6667C67.1367 70.6667 67.21 70.6067 67.2833 70.5333C67.3567 70.4633 67.43 70.4033 67.45 70.4C67.47 70.4 67.5433 70.34 67.6167 70.2667C67.69 70.1967 67.7633 70.1367 67.7833 70.1333C67.8033 70.1333 67.8767 70.0733 67.95 70C68.0233 69.93 68.0967 69.8667 68.1167 69.8667C68.1367 69.8667 68.23 69.79 68.3267 69.7C68.42 69.6067 68.51 69.5333 68.5267 69.5333C68.54 69.5333 68.63 69.4567 68.7267 69.3667C68.82 69.2733 68.91 69.2 68.9267 69.2C68.94 69.2 69.0133 69.14 69.0933 69.0667C69.17 68.9933 69.2433 68.9333 69.26 68.9333C69.2733 68.9333 69.3633 68.86 69.46 68.7667C69.5533 68.6767 69.6433 68.6 69.66 68.6C69.6733 68.6 69.7633 68.5267 69.86 68.4333C69.9533 68.3433 70.0433 68.2667 70.06 68.2667C70.0733 68.2667 70.1767 68.1767 70.2933 68.0667C70.4067 67.9567 70.51 67.8667 70.5267 67.8667C70.54 67.8667 70.63 67.7933 70.7267 67.7C70.82 67.61 70.91 67.5333 70.9267 67.5333C70.94 67.5333 71.0433 67.4433 71.16 67.3333C71.2733 67.2233 71.3767 67.1333 71.3933 67.1333C71.4067 67.1333 71.4967 67.06 71.5933 66.9667C71.6867 66.8767 71.7767 66.8 71.7933 66.8C71.8067 66.8 71.91 66.71 72.0267 66.6C72.14 66.49 72.2433 66.4 72.26 66.4C72.2733 66.4 72.3767 66.31 72.4933 66.2C72.6067 66.09 72.71 66 72.7267 66C72.74 66 72.8433 65.91 72.96 65.8C73.0733 65.69 73.1767 65.6 73.1933 65.6C73.2067 65.6 73.31 65.51 73.4267 65.4C73.54 65.29 73.6433 65.2 73.66 65.2C73.6733 65.2 73.7767 65.11 73.8933 65C74.0067 64.89 74.11 64.8 74.1267 64.8C74.14 64.8 74.2433 64.71 74.36 64.6C74.4733 64.49 74.5767 64.4 74.5933 64.4C74.6067 64.4 74.71 64.31 74.8267 64.2C74.94 64.09 75.0433 64 75.06 64C75.0733 64 75.1767 63.91 75.2933 63.8C75.4067 63.69 75.51 63.6 75.5267 63.6C75.54 63.6 75.6433 63.51 75.76 63.4C75.8733 63.29 75.9767 63.2 75.9933 63.2C76.0067 63.2 76.11 63.11 76.2267 63C76.34 62.89 76.4433 62.8 76.46 62.8C76.4733 62.8 76.5633 62.7267 76.66 62.6333C76.7533 62.5433 76.8433 62.4667 76.86 62.4667C76.8733 62.4667 76.9533 62.4033 77.0367 62.3233C77.12 62.2467 77.24 62.1467 77.3033 62.1C77.3667 62.0567 77.43 62.0067 77.45 61.9933C77.47 61.98 77.5333 61.93 77.5933 61.8833C77.65 61.8367 77.71 61.8 77.7267 61.8C77.74 61.8 77.8033 61.7533 77.8667 61.6967C77.93 61.6433 78.01 61.59 78.0433 61.5833C78.0733 61.5733 78.1 61.5567 78.1 61.54C78.0967 61.5267 78.1433 61.4933 78.2 61.4667C78.2567 61.44 78.3 61.41 78.3 61.4C78.3 61.39 78.3733 61.3467 78.4667 61.3C78.5567 61.2533 78.6333 61.21 78.6333 61.2C78.6333 61.19 78.92 61.0367 79.2733 60.86C79.6267 60.68 79.94 60.5333 79.9667 60.5333C79.9967 60.5333 80.0333 60.52 80.05 60.5033C80.07 60.4867 80.2633 60.4133 80.4833 60.34C80.7033 60.2633 80.9967 60.1733 81.1333 60.1367C81.27 60.1 81.5033 60.0467 81.65 60.0167C81.7967 59.9867 82.06 59.94 82.2333 59.9133C82.4067 59.8867 82.94 59.8533 83.4167 59.8433C84.0633 59.8267 84.29 59.8333 84.31 59.86C84.3233 59.8833 84.4233 59.9 84.5667 59.9C84.6933 59.9 84.8067 59.9167 84.8167 59.9333C84.8267 59.95 84.9167 59.9667 85.0167 59.9667C85.1167 59.9667 85.2 59.9833 85.2 60C85.2 60.0167 85.2667 60.0333 85.35 60.0333C85.4333 60.0333 85.5 60.05 85.5 60.0667C85.5 60.0833 85.56 60.1 85.6333 60.1C85.7067 60.1 85.7667 60.1167 85.7667 60.1333C85.7667 60.15 85.82 60.1667 85.8833 60.1667C85.9467 60.1667 86 60.1833 86 60.2C86 60.2167 86.0433 60.2333 86.1 60.2333C86.1567 60.2333 86.2 60.25 86.2 60.2667C86.2 60.2833 86.2433 60.3 86.3 60.3C86.3567 60.3 86.4 60.3167 86.4 60.3333C86.4 60.35 86.4433 60.3667 86.5 60.3667C86.5567 60.3667 86.6 60.3833 86.6 60.4C86.6 60.4167 86.6433 60.4333 86.7 60.4333C86.7567 60.4333 86.8 60.45 86.8 60.4667C86.8 60.4833 86.8367 60.5 86.8833 60.5C86.93 60.5 86.9667 60.5167 86.9667 60.5333C86.9667 60.55 86.9967 60.5667 87.0333 60.5667C87.07 60.5667 87.1 60.5833 87.1 60.6C87.1 60.6167 87.1367 60.6333 87.1833 60.6333C87.23 60.6333 87.2667 60.65 87.2667 60.6667C87.2667 60.6833 87.3033 60.7 87.35 60.7C87.3967 60.7 87.4333 60.7167 87.4333 60.7333C87.4333 60.75 87.4633 60.7667 87.5 60.7667C87.5367 60.7667 87.5667 60.7833 87.5667 60.8C87.5667 60.8167 87.5967 60.8333 87.6333 60.8333C87.67 60.8333 87.7 60.85 87.7 60.8667C87.7 60.8833 87.73 60.9 87.7667 60.9C87.8033 60.9 87.8333 60.9167 87.8333 60.9333C87.8333 60.95 87.8633 60.9667 87.9 60.9667C87.9367 60.9667 87.9667 60.9833 87.9667 61C87.9667 61.0167 87.9967 61.0333 88.0333 61.0333C88.07 61.0333 88.1 61.05 88.1 61.0667C88.1 61.0833 88.13 61.1 88.1667 61.1C88.2033 61.1 88.2333 61.1167 88.2333 61.1333C88.2333 61.15 88.2633 61.1667 88.3 61.1667C88.3367 61.1667 88.3667 61.1833 88.3667 61.2C88.3667 61.2167 88.39 61.2333 88.4167 61.2333C88.4433 61.2333 88.4667 61.25 88.4667 61.2667C88.4667 61.2833 88.4933 61.3 88.5267 61.3C88.5567 61.3 88.6167 61.33 88.66 61.3667C88.7 61.4033 88.7467 61.4333 88.7667 61.4333C88.7867 61.4333 88.8 61.45 88.8 61.4667C88.8 61.4833 88.8267 61.5 88.86 61.5C88.89 61.5 88.95 61.53 88.9933 61.5667C89.0333 61.6033 89.08 61.6333 89.1 61.6333C89.12 61.6333 89.1333 61.65 89.1333 61.6667C89.1333 61.6833 89.1567 61.7 89.1833 61.7C89.21 61.7 89.2333 61.7167 89.2333 61.7333C89.2333 61.75 89.2567 61.7667 89.2833 61.7667C89.31 61.7667 89.3333 61.7833 89.3333 61.8C89.3333 61.8167 89.3567 61.8333 89.3833 61.8333C89.41 61.8333 89.4333 61.85 89.4333 61.8667C89.4333 61.8833 89.4567 61.9 89.4833 61.9C89.51 61.9 89.5333 61.9167 89.5333 61.9333C89.5333 61.95 89.5567 61.9667 89.5833 61.9667C89.61 61.9667 89.6333 61.9833 89.6333 62C89.6333 62.0167 89.6533 62.0333 89.6767 62.0333C89.6967 62.03 89.7667 62.0767 89.8267 62.1333C89.8833 62.1867 89.9433 62.2333 89.96 62.2333C89.9733 62.23 90.0333 62.2767 90.0933 62.3333C90.15 62.3867 90.21 62.4333 90.2267 62.4333C90.24 62.43 90.3 62.4767 90.36 62.5333C90.4167 62.5867 90.4767 62.6333 90.4933 62.6333C90.5067 62.6333 90.5967 62.7067 90.6933 62.8C90.7867 62.89 90.88 62.9667 90.9 62.9667C90.92 62.9667 90.97 63.01 91.0167 63.0667C91.0633 63.1233 91.1067 63.1667 91.1167 63.1667C91.1267 63.1667 91.1933 63.2267 91.2667 63.3C91.34 63.3733 91.41 63.4333 91.4267 63.4333C91.44 63.4333 91.7467 63.73 92.1067 64.09C92.47 64.4533 92.7667 64.76 92.7667 64.7733C92.7667 64.79 92.8733 64.91 93 65.04C93.13 65.1733 93.2333 65.2933 93.2333 65.3067C93.2333 65.3233 93.3067 65.4133 93.4 65.5067C93.49 65.6033 93.5667 65.6933 93.5667 65.7067C93.5667 65.7233 93.62 65.79 93.6833 65.8567C93.7467 65.9267 93.8 65.99 93.8 66C93.8 66.01 93.8433 66.07 93.8967 66.1333C93.9533 66.1967 94 66.23 94 66.2067C94 66.1867 93.9867 66.1667 93.9667 66.1667C93.9467 66.1667 93.9333 66.1367 93.9333 66.1C93.9333 66.0633 93.92 66.0333 93.9 66.0333C93.88 66.0333 93.8667 66.0033 93.8667 65.9667C93.8667 65.93 93.8533 65.9 93.8333 65.9C93.8133 65.9 93.8 65.87 93.8 65.8333C93.8 65.7967 93.7867 65.7667 93.7667 65.7667C93.7467 65.7667 93.7333 65.7367 93.7333 65.7C93.7333 65.6633 93.72 65.6333 93.7 65.6333C93.68 65.6333 93.6667 65.6033 93.6667 65.5667C93.6667 65.53 93.6533 65.5 93.6333 65.5C93.6133 65.5 93.6 65.47 93.6 65.4333C93.6 65.3967 93.5867 65.3667 93.5667 65.3667C93.5467 65.3667 93.5333 65.33 93.5333 65.2833C93.5333 65.2367 93.52 65.2 93.5 65.2C93.48 65.2 93.4667 65.17 93.4667 65.1333C93.4667 65.0967 93.4533 65.0667 93.4333 65.0667C93.4133 65.0667 93.4 65.0367 93.4 65C93.4 64.9633 93.3867 64.9333 93.3667 64.9333C93.3467 64.9333 93.3333 64.9033 93.3333 64.8667C93.3333 64.83 93.32 64.8 93.3 64.8C93.28 64.8 93.2667 64.77 93.2667 64.7333C93.2667 64.6967 93.2533 64.6667 93.2333 64.6667C93.2133 64.6667 93.2 64.6367 93.2 64.6C93.2 64.5633 93.1867 64.5333 93.1667 64.5333C93.1467 64.5333 93.1333 64.5033 93.1333 64.4667C93.1333 64.43 93.12 64.4 93.1 64.4C93.08 64.4 93.0667 64.37 93.0667 64.3333C93.0667 64.2967 93.0533 64.2667 93.0333 64.2667C93.0133 64.2667 93 64.2367 93 64.2C93 64.1633 92.9867 64.1333 92.9667 64.1333C92.9467 64.1333 92.9333 64.1033 92.9333 64.0667C92.9333 64.03 92.92 64 92.9 64C92.88 64 92.8667 63.97 92.8667 63.9333C92.8667 63.8967 92.8533 63.8667 92.8333 63.8667C92.8133 63.8667 92.8 63.8367 92.8 63.8C92.8 63.7633 92.7867 63.7333 92.7667 63.7333C92.7467 63.7333 92.7333 63.7033 92.7333 63.6667C92.7333 63.63 92.72 63.6 92.7 63.6C92.68 63.6 92.6667 63.57 92.6667 63.5333C92.6667 63.4967 92.6533 63.4667 92.6333 63.4667C92.6133 63.4667 92.6 63.4367 92.6 63.4C92.6 63.3633 92.5867 63.3333 92.5667 63.3333C92.5467 63.3333 92.5333 63.31 92.5333 63.2833C92.5333 63.2567 92.5033 63.2 92.4667 63.1567C92.43 63.1167 92.4 63.0567 92.4 63.0233C92.4 62.9933 92.3867 62.9667 92.3667 62.9667C92.3467 62.9667 92.3333 62.9367 92.3333 62.9C92.3333 62.8633 92.32 62.8333 92.3 62.8333C92.28 62.8333 92.2667 62.8033 92.2667 62.7667C92.2667 62.73 92.2533 62.7 92.2333 62.7C92.2133 62.7 92.2 62.67 92.2 62.6333C92.2 62.5967 92.1867 62.5667 92.1667 62.5667C92.1467 62.5667 92.1333 62.5367 92.1333 62.5C92.1333 62.4633 92.12 62.4333 92.1 62.4333C92.08 62.4333 92.0667 62.4033 92.0667 62.3667C92.0667 62.33 92.0533 62.3 92.0333 62.3C92.0133 62.3 92 62.27 92 62.2333C92 62.1967 91.9867 62.1667 91.9667 62.1667C91.9467 62.1667 91.9333 62.1367 91.9333 62.1C91.9333 62.0633 91.92 62.0333 91.9 62.0333C91.88 62.0333 91.8667 62.01 91.8667 61.9833C91.8667 61.9567 91.8533 61.9333 91.8333 61.9333C91.8133 61.9333 91.8 61.9033 91.8 61.8667C91.8 61.83 91.7867 61.8 91.7667 61.8C91.7467 61.8 91.7333 61.77 91.7333 61.7333C91.7333 61.6967 91.72 61.6667 91.7 61.6667C91.68 61.6667 91.6667 61.6367 91.6667 61.6C91.6667 61.5633 91.6533 61.5333 91.6333 61.5333C91.6133 61.5333 91.6 61.5033 91.6 61.4667C91.6 61.43 91.5867 61.4 91.5667 61.4C91.5467 61.4 91.5333 61.37 91.5333 61.3333C91.5333 61.2967 91.52 61.2667 91.5 61.2667C91.48 61.2667 91.4667 61.2367 91.4667 61.2C91.4667 61.1633 91.4533 61.1333 91.4333 61.1333C91.4133 61.1333 91.4 61.11 91.4 61.0833C91.4 61.0567 91.3867 61.0333 91.3667 61.0333C91.3467 61.0333 91.3333 61.0033 91.3333 60.9667C91.3333 60.93 91.32 60.9 91.3 60.9C91.28 60.9 91.2667 60.87 91.2667 60.8333C91.2667 60.7967 91.2533 60.7667 91.2333 60.7667C91.2133 60.7667 91.2 60.7367 91.2 60.7C91.2 60.6633 91.1867 60.6333 91.1667 60.6333C91.1467 60.6333 91.1333 60.61 91.1333 60.5833C91.1333 60.5567 91.12 60.5333 91.1 60.5333C91.08 60.5333 91.0667 60.5033 91.0667 60.4667C91.0667 60.43 91.0533 60.4 91.0333 60.4C91.0133 60.4 91 60.37 91 60.3333C91 60.2967 90.9867 60.2667 90.9667 60.2667C90.9467 60.2667 90.9333 60.2433 90.9333 60.2167C90.9333 60.19 90.9033 60.1333 90.8667 60.09C90.83 60.05 90.8 59.99 90.8 59.9567C90.8 59.9267 90.7867 59.9 90.7667 59.9C90.7467 59.9 90.7333 59.87 90.7333 59.8333C90.7333 59.7967 90.72 59.7667 90.7 59.7667C90.68 59.7667 90.6667 59.7367 90.6667 59.7C90.6667 59.6633 90.6533 59.6333 90.6333 59.6333C90.6133 59.6333 90.6 59.61 90.6 59.5833C90.6 59.5567 90.5867 59.5333 90.5667 59.5333C90.5467 59.5333 90.5333 59.5033 90.5333 59.4667C90.5333 59.43 90.52 59.4 90.5 59.4C90.48 59.4 90.4667 59.3767 90.4667 59.35C90.4667 59.3233 90.4367 59.2667 90.4 59.2233C90.3633 59.1833 90.3333 59.1233 90.3333 59.09C90.3333 59.06 90.32 59.0333 90.3 59.0333C90.28 59.0333 90.2667 59.0033 90.2667 58.9667C90.2667 58.93 90.2533 58.9 90.2333 58.9C90.2133 58.9 90.2 58.8767 90.2 58.85C90.2 58.8233 90.1867 58.8 90.1667 58.8C90.1467 58.8 90.1333 58.77 90.1333 58.7333C90.1333 58.6967 90.12 58.6667 90.1 58.6667C90.08 58.6667 90.0667 58.6433 90.0667 58.6167C90.0667 58.59 90.0367 58.5333 90 58.49C89.9633 58.45 89.9333 58.39 89.9333 58.3567C89.9333 58.3267 89.92 58.3 89.9 58.3C89.88 58.3 89.8667 58.27 89.8667 58.2333C89.8667 58.1967 89.8533 58.1667 89.8333 58.1667C89.8133 58.1667 89.8 58.1433 89.8 58.1167C89.8 58.09 89.7867 58.0667 89.7667 58.0667C89.7467 58.0667 89.7333 58.0367 89.7333 58C89.7333 57.9633 89.72 57.9333 89.7 57.9333C89.68 57.9333 89.6667 57.9033 89.6667 57.8667C89.6667 57.83 89.6533 57.8 89.6333 57.8C89.6133 57.8 89.6 57.7767 89.6 57.75C89.6 57.7233 89.5867 57.7 89.5667 57.7C89.5467 57.7 89.5333 57.67 89.5333 57.6333C89.5333 57.5967 89.52 57.5667 89.5 57.5667C89.48 57.5667 89.4667 57.5433 89.4667 57.5167C89.4667 57.49 89.4533 57.4667 89.4333 57.4667C89.4133 57.4667 89.4 57.4433 89.4 57.4167C89.4 57.39 89.37 57.3333 89.3333 57.29C89.2967 57.25 89.2667 57.19 89.2667 57.1567C89.2667 57.1267 89.2533 57.1 89.2333 57.1C89.2133 57.1 89.2 57.07 89.2 57.0333C89.2 56.9967 89.1867 56.9667 89.1667 56.9667C89.1467 56.9667 89.1333 56.9433 89.1333 56.9167C89.1333 56.89 89.12 56.8667 89.1 56.8667C89.08 56.8667 89.0667 56.8367 89.0667 56.8C89.0667 56.7633 89.0533 56.7333 89.0333 56.7333C89.0133 56.7333 89 56.71 89 56.6833C89 56.6567 88.9867 56.6333 88.9667 56.6333C88.9467 56.6333 88.9333 56.6033 88.9333 56.5667C88.9333 56.53 88.92 56.5 88.9 56.5C88.88 56.5 88.8667 56.4767 88.8667 56.45C88.8667 56.4233 88.8533 56.4 88.8333 56.4C88.8133 56.4 88.8 56.3767 88.8 56.35C88.8 56.3233 88.77 56.2667 88.7333 56.2233C88.6967 56.1833 88.6667 56.1233 88.6667 56.09C88.6667 56.06 88.6533 56.0333 88.6333 56.0333C88.6133 56.0333 88.6 56.01 88.6 55.9833C88.6 55.9567 88.5867 55.9333 88.5667 55.9333C88.5467 55.9333 88.5333 55.91 88.5333 55.8833C88.5333 55.8567 88.5033 55.8 88.4667 55.7567C88.43 55.7167 88.4 55.6567 88.4 55.6233C88.4 55.5933 88.3867 55.5667 88.3667 55.5667C88.3467 55.5667 88.3333 55.5433 88.3333 55.5167C88.3333 55.49 88.32 55.4667 88.3 55.4667C88.28 55.4667 88.2667 55.4367 88.2667 55.4C88.2667 55.3633 88.2533 55.3333 88.2333 55.3333C88.2133 55.3333 88.2 55.31 88.2 55.2833C88.2 55.2567 88.1867 55.2333 88.1667 55.2333C88.1467 55.2333 88.1333 55.2033 88.1333 55.1667C88.1333 55.13 88.12 55.1 88.1 55.1C88.08 55.1 88.0667 55.0833 88.0667 55.0667C88.0667 55.05 88.0367 55 88 54.9567C87.9633 54.9167 87.9333 54.8567 87.9333 54.8233C87.9333 54.7933 87.92 54.7667 87.9 54.7667C87.88 54.7667 87.8667 54.7433 87.8667 54.7167C87.8667 54.69 87.8533 54.6667 87.8333 54.6667C87.8133 54.6667 87.8 54.6367 87.8 54.6C87.8 54.5633 87.7867 54.5333 87.7667 54.5333C87.7467 54.5333 87.7333 54.51 87.7333 54.4833C87.7333 54.4567 87.72 54.4333 87.7 54.4333C87.68 54.4333 87.6667 54.4033 87.6667 54.3667C87.6667 54.33 87.6533 54.3 87.6333 54.3C87.6133 54.3 87.6 54.2833 87.6 54.2667C87.6 54.25 87.57 54.2 87.5333 54.1567C87.4967 54.1167 87.4667 54.0567 87.4667 54.0233C87.4667 53.9933 87.4533 53.9667 87.4333 53.9667C87.4133 53.9667 87.4 53.95 87.4 53.9333C87.4 53.9167 87.37 53.8667 87.3333 53.8233C87.2967 53.7833 87.2667 53.7233 87.2667 53.69C87.2667 53.66 87.2533 53.6333 87.2333 53.6333C87.2133 53.6333 87.2 53.6167 87.2 53.6C87.2 53.5833 87.17 53.5333 87.1333 53.49C87.0967 53.45 87.0667 53.39 87.0667 53.3567C87.0667 53.3267 87.0533 53.3 87.0333 53.3C87.0133 53.3 87 53.2833 87 53.2667C87 53.25 86.97 53.2 86.9333 53.1567C86.8967 53.1167 86.8667 53.0567 86.8667 53.0233C86.8667 52.9933 86.8533 52.9667 86.8333 52.9667C86.8133 52.9667 86.8 52.95 86.8 52.9333C86.8 52.9167 86.77 52.8667 86.7333 52.8233C86.6967 52.7833 86.6667 52.7233 86.6667 52.69C86.6667 52.66 86.6533 52.6333 86.6333 52.6333C86.6133 52.6333 86.6 52.6167 86.6 52.6C86.6 52.5833 86.57 52.5333 86.5333 52.49C86.4967 52.45 86.4667 52.39 86.4667 52.3567C86.4667 52.3267 86.4533 52.3 86.4333 52.3C86.4133 52.3 86.4 52.2833 86.4 52.2667C86.4 52.25 86.37 52.2 86.3333 52.1567C86.2967 52.1167 86.2667 52.0633 86.2667 52.04C86.2667 52.02 86.2533 52 86.2333 52C86.2133 52 86.2 51.97 86.2 51.9333C86.2 51.8967 86.1867 51.8667 86.1667 51.8667C86.1467 51.8667 86.1333 51.8433 86.1333 51.8167C86.1333 51.79 86.12 51.7667 86.1 51.7667C86.08 51.7667 86.0667 51.75 86.0667 51.7333C86.0667 51.7167 86.0367 51.6667 86 51.6233C85.9633 51.5833 85.9333 51.5233 85.9333 51.49C85.9333 51.46 85.92 51.4333 85.9 51.4333C85.88 51.4333 85.8667 51.41 85.8667 51.3833C85.8667 51.3567 85.8533 51.3333 85.8333 51.3333C85.8133 51.3333 85.8 51.31 85.8 51.2833C85.8 51.2567 85.7867 51.2333 85.7667 51.2333C85.7467 51.2333 85.7333 51.2033 85.7333 51.1667C85.7333 51.13 85.72 51.1 85.7 51.1C85.68 51.1 85.6667 51.0767 85.6667 51.05C85.6667 51.0233 85.6533 51 85.6333 51C85.6133 51 85.6 50.97 85.6 50.9333C85.6 50.8967 85.5867 50.8667 85.5667 50.8667C85.5467 50.8667 85.5333 50.8433 85.5333 50.8167C85.5333 50.79 85.52 50.7667 85.5 50.7667C85.48 50.7667 85.4667 50.7433 85.4667 50.7167C85.4667 50.69 85.4533 50.6667 85.4333 50.6667C85.4133 50.6667 85.4 50.6433 85.4 50.6167C85.4 50.59 85.37 50.5333 85.3333 50.49C85.2967 50.45 85.2667 50.39 85.2667 50.3567C85.2667 50.3267 85.2533 50.3 85.2333 50.3C85.2133 50.3 85.2 50.2767 85.2 50.25C85.2 50.2233 85.1867 50.2 85.1667 50.2C85.1467 50.2 85.1333 50.17 85.1333 50.1333C85.1333 50.0967 85.12 50.0667 85.1 50.0667C85.08 50.0667 85.0667 50.0433 85.0667 50.0167C85.0667 49.99 85.0533 49.9667 85.0333 49.9667C85.0133 49.9667 85 49.9367 85 49.9C85 49.8633 84.9867 49.8333 84.9667 49.8333C84.9467 49.8333 84.9333 49.8167 84.9333 49.8C84.9333 49.7833 84.9033 49.7333 84.8667 49.69C84.83 49.65 84.8 49.59 84.8 49.5567C84.8 49.5267 84.7867 49.5 84.7667 49.5C84.7467 49.5 84.7333 49.4767 84.7333 49.45C84.7333 49.4233 84.72 49.4 84.7 49.4C84.68 49.4 84.6667 49.37 84.6667 49.3333C84.6667 49.2967 84.6533 49.2667 84.6333 49.2667C84.6133 49.2667 84.6 49.2433 84.6 49.2167C84.6 49.19 84.5867 49.1667 84.5667 49.1667C84.5467 49.1667 84.5333 49.1433 84.5333 49.1167C84.5333 49.09 84.52 49.0667 84.5 49.0667C84.48 49.0667 84.4667 49.0433 84.4667 49.0167C84.4667 48.99 84.4367 48.9333 84.4 48.89C84.3633 48.85 84.3333 48.79 84.3333 48.7567C84.3333 48.7267 84.32 48.7 84.3 48.7C84.28 48.7 84.2667 48.6833 84.2667 48.6667C84.2667 48.65 84.2367 48.6 84.2 48.5567C84.1633 48.5167 84.1333 48.4567 84.1333 48.4233C84.1333 48.3933 84.12 48.3667 84.1 48.3667C84.08 48.3667 84.0667 48.3433 84.0667 48.3167C84.0667 48.29 84.0533 48.2667 84.0333 48.2667C84.0133 48.2667 84 48.2367 84 48.2C84 48.1633 83.9867 48.1333 83.9667 48.1333C83.9467 48.1333 83.9333 48.11 83.9333 48.0833C83.9333 48.0567 83.92 48.0333 83.9 48.0333C83.88 48.0333 83.8667 48.01 83.8667 47.9833C83.8667 47.9567 83.8533 47.9333 83.8333 47.9333C83.8133 47.9333 83.8 47.9033 83.8 47.8667C83.8 47.83 83.7867 47.8 83.7667 47.8C83.7467 47.8 83.7333 47.7767 83.7333 47.75C83.7333 47.7233 83.72 47.7 83.7 47.7C83.68 47.7 83.6667 47.6767 83.6667 47.65C83.6667 47.6233 83.6533 47.6 83.6333 47.6C83.6133 47.6 83.6 47.57 83.6 47.5333C83.6 47.4967 83.5867 47.4667 83.5667 47.4667C83.5467 47.4667 83.5333 47.4433 83.5333 47.4167C83.5333 47.39 83.52 47.3667 83.5 47.3667C83.48 47.3667 83.4667 47.3433 83.4667 47.3167C83.4667 47.29 83.4533 47.2667 83.4333 47.2667C83.4133 47.2667 83.4 47.2367 83.4 47.2C83.4 47.1633 83.3867 47.1333 83.3667 47.1333C83.3467 47.1333 83.3333 47.11 83.3333 47.0833C83.3333 47.0567 83.32 47.0333 83.3 47.0333C83.28 47.0333 83.2667 47.01 83.2667 46.9833C83.2667 46.9567 83.2533 46.9333 83.2333 46.9333C83.2133 46.9333 83.2 46.9033 83.2 46.8667C83.2 46.83 83.1867 46.8 83.1667 46.8C83.1467 46.8 83.1333 46.7767 83.1333 46.75C83.1333 46.7233 83.12 46.7 83.1 46.7C83.08 46.7 83.0667 46.6767 83.0667 46.65C83.0667 46.6233 83.0533 46.6 83.0333 46.6C83.0133 46.6 83 46.57 83 46.5333C83 46.4967 82.9867 46.4667 82.9667 46.4667C82.9467 46.4667 82.9333 46.4433 82.9333 46.4167C82.9333 46.39 82.92 46.3667 82.9 46.3667C82.88 46.3667 82.8667 46.3433 82.8667 46.3167C82.8667 46.29 82.8533 46.2667 82.8333 46.2667C82.8133 46.2667 82.8 46.2367 82.8 46.2C82.8 46.1633 82.7867 46.1333 82.7667 46.1333C82.7467 46.1333 82.7333 46.11 82.7333 46.0833C82.7333 46.0567 82.72 46.0333 82.7 46.0333C82.68 46.0333 82.6667 46.01 82.6667 45.9833C82.6667 45.9567 82.6533 45.9333 82.6333 45.9333C82.6133 45.9333 82.6 45.9033 82.6 45.8667C82.6 45.83 82.5867 45.8 82.5667 45.8C82.5467 45.8 82.5333 45.7767 82.5333 45.75C82.5333 45.7233 82.52 45.7 82.5 45.7C82.48 45.7 82.4667 45.6767 82.4667 45.65C82.4667 45.6233 82.4533 45.6 82.4333 45.6C82.4133 45.6 82.4 45.57 82.4 45.5333C82.4 45.4967 82.3867 45.4667 82.3667 45.4667C82.3467 45.4667 82.3333 45.4433 82.3333 45.4167C82.3333 45.39 82.32 45.3667 82.3 45.3667C82.28 45.3667 82.2667 45.3533 82.2667 45.3333C82.2667 45.3133 82.2367 45.2667 82.2 45.2233C82.1633 45.1833 82.1333 45.1233 82.1333 45.09C82.1333 45.06 82.12 45.0333 82.1 45.0333C82.08 45.0333 82.0667 45.02 82.0667 45C82.0667 44.98 82.0367 44.9333 82 44.89C81.9633 44.85 81.9333 44.79 81.9333 44.7567C81.9333 44.7267 81.92 44.7 81.9 44.7C81.88 44.7 81.8667 44.6867 81.8667 44.6667C81.8667 44.6467 81.8367 44.6 81.8 44.5567C81.7633 44.5167 81.7333 44.4633 81.7333 44.44C81.7333 44.42 81.72 44.4 81.7 44.4C81.68 44.4 81.6667 44.37 81.6667 44.3333C81.6667 44.2967 81.6533 44.2667 81.6333 44.2667C81.6133 44.2667 81.6 44.2433 81.6 44.2167C81.6 44.19 81.5867 44.1667 81.5667 44.1667C81.5467 44.1667 81.5333 44.1433 81.5333 44.1167C81.5333 44.09 81.52 44.0667 81.5 44.0667C81.48 44.0667 81.4667 44.0367 81.4667 44C81.4667 43.9633 81.4533 43.9333 81.4333 43.9333C81.4133 43.9333 81.4 43.91 81.4 43.8833C81.4 43.8567 81.3867 43.8333 81.3667 43.8333C81.3467 43.8333 81.3333 43.82 81.3333 43.8C81.3333 43.78 81.3033 43.7333 81.2667 43.69C81.23 43.65 81.2 43.59 81.2 43.5567C81.2 43.5267 81.1867 43.5 81.1667 43.5C81.1467 43.5 81.1333 43.4767 81.1333 43.45C81.1333 43.4233 81.12 43.4 81.1 43.4C81.08 43.4 81.0667 43.3767 81.0667 43.35C81.0667 43.3233 81.0533 43.3 81.0333 43.3C81.0133 43.3 81 43.2867 81 43.2667C81 43.2467 80.97 43.2 80.9333 43.1567C80.8967 43.1167 80.8667 43.0567 80.8667 43.0233C80.8667 42.9933 80.8533 42.9667 80.8333 42.9667C80.8133 42.9667 80.8 42.9533 80.8 42.9333C80.8 42.9133 80.77 42.8667 80.7333 42.8233C80.6967 42.7833 80.6667 42.73 80.6667 42.7067C80.6667 42.6867 80.6533 42.6667 80.6333 42.6667C80.6133 42.6667 80.6 42.6367 80.6 42.6C80.6 42.5633 80.5867 42.5333 80.5667 42.5333C80.5467 42.5333 80.5333 42.51 80.5333 42.4833C80.5333 42.4567 80.52 42.4333 80.5 42.4333C80.48 42.4333 80.4667 42.42 80.4667 42.4C80.4667 42.38 80.4367 42.3333 80.4 42.29C80.3633 42.25 80.3333 42.19 80.3333 42.1567C80.3333 42.1267 80.32 42.1 80.3 42.1C80.28 42.1 80.2667 42.0767 80.2667 42.05C80.2667 42.0233 80.2533 42 80.2333 42C80.2133 42 80.2 41.9767 80.2 41.95C80.2 41.9233 80.1867 41.9 80.1667 41.9C80.1467 41.9 80.1333 41.8867 80.1333 41.8667C80.1333 41.8467 80.1033 41.8 80.0667 41.7567C80.03 41.7167 80 41.6567 80 41.6233C80 41.5933 79.9867 41.5667 79.9667 41.5667C79.9467 41.5667 79.9333 41.5433 79.9333 41.5167C79.9333 41.49 79.92 41.4667 79.9 41.4667C79.88 41.4667 79.8667 41.4433 79.8667 41.4167C79.8667 41.39 79.8533 41.3667 79.8333 41.3667C79.8133 41.3667 79.8 41.3533 79.8 41.3333C79.8 41.3133 79.77 41.2667 79.7333 41.2233C79.6967 41.1833 79.6667 41.13 79.6667 41.1067C79.6667 41.0867 79.6533 41.0667 79.6333 41.0667C79.6133 41.0667 79.6 41.0367 79.6 41C79.6 40.9633 79.5867 40.9333 79.5667 40.9333C79.5467 40.9333 79.5333 40.91 79.5333 40.8833C79.5333 40.8567 79.52 40.8333 79.5 40.8333C79.48 40.8333 79.4667 40.81 79.4667 40.7833C79.4667 40.7567 79.4567 40.7333 79.4433 40.7333C79.4267 40.7333 79.3933 40.6933 79.3667 40.6433C79.34 40.59 79.29 40.52 79.2567 40.4833C79.2267 40.4467 79.2 40.39 79.2 40.3567C79.2 40.3267 79.1867 40.3 79.1667 40.3C79.1467 40.3 79.1333 40.2767 79.1333 40.25C79.1333 40.2233 79.12 40.2 79.1 40.2C79.08 40.2 79.0667 40.1767 79.0667 40.15C79.0667 40.1233 79.0533 40.1 79.0333 40.1C79.0133 40.1 79 40.0867 79 40.0667C79 40.0467 78.97 40 78.9333 39.9567C78.8967 39.9167 78.8667 39.8633 78.8667 39.84C78.8667 39.82 78.8533 39.8 78.8333 39.8C78.8133 39.8 78.8 39.77 78.8 39.7333C78.8 39.6967 78.7867 39.6667 78.7667 39.6667C78.7467 39.6667 78.7333 39.6433 78.7333 39.6167C78.7333 39.59 78.72 39.5667 78.7 39.5667C78.68 39.5667 78.6667 39.5433 78.6667 39.5167C78.6667 39.49 78.6533 39.4667 78.6333 39.4667C78.6133 39.4667 78.6 39.4433 78.6 39.4167C78.6 39.39 78.5867 39.3667 78.5667 39.3667C78.5467 39.3667 78.5333 39.3433 78.5333 39.3167C78.5333 39.29 78.5233 39.2667 78.51 39.2667C78.4933 39.2667 78.46 39.2267 78.4333 39.1767C78.4067 39.1233 78.3567 39.0533 78.3233 39.0167C78.2933 38.98 78.2667 38.9233 78.2667 38.89C78.2667 38.86 78.2533 38.8333 78.2333 38.8333C78.2133 38.8333 78.2 38.81 78.2 38.7833C78.2 38.7567 78.1867 38.7333 78.1667 38.7333C78.1467 38.7333 78.1333 38.71 78.1333 38.6833C78.1333 38.6567 78.12 38.6333 78.1 38.6333C78.08 38.6333 78.0667 38.61 78.0667 38.5833C78.0667 38.5567 78.0567 38.5333 78.0433 38.5333C78.0267 38.5333 77.9933 38.4933 77.9667 38.4433C77.94 38.39 77.89 38.32 77.8567 38.2833C77.8267 38.2467 77.8 38.1967 77.8 38.1733C77.8 38.1533 77.7867 38.1333 77.7667 38.1333C77.7467 38.1333 77.7333 38.1033 77.7333 38.0667C77.7333 38.03 77.72 38 77.7 38C77.68 38 77.6667 37.9767 77.6667 37.95C77.6667 37.9233 77.6533 37.9 77.6333 37.9C77.6133 37.9 77.6 37.8767 77.6 37.85C77.6 37.8233 77.5867 37.8 77.5667 37.8C77.5467 37.8 77.5333 37.7767 77.5333 37.75C77.5333 37.7233 77.52 37.7 77.5 37.7C77.48 37.7 77.4667 37.6767 77.4667 37.65C77.4667 37.6233 77.4533 37.6 77.4333 37.6C77.4133 37.6 77.4 37.5767 77.4 37.55C77.4 37.5233 77.3867 37.5 77.3667 37.5C77.3467 37.5 77.3333 37.4767 77.3333 37.45C77.3333 37.4233 77.3233 37.4 77.31 37.4C77.2933 37.4 77.26 37.36 77.2333 37.31C77.2067 37.2567 77.1567 37.1867 77.1233 37.15C77.0933 37.1133 77.0667 37.0633 77.0667 37.04C77.0667 37.02 77.0567 37 77.0433 37C77.0267 37 76.9933 36.96 76.9667 36.91C76.94 36.8567 76.89 36.7867 76.8567 36.75C76.8267 36.7133 76.8 36.6567 76.8 36.6233C76.8 36.5933 76.7867 36.5667 76.7667 36.5667C76.7467 36.5667 76.7333 36.5433 76.7333 36.5167C76.7333 36.49 76.72 36.4667 76.7 36.4667C76.68 36.4667 76.6667 36.4433 76.6667 36.4167C76.6667 36.39 76.6533 36.3667 76.6333 36.3667C76.6133 36.3667 76.6 36.3433 76.6 36.3167C76.6 36.29 76.5867 36.2667 76.5667 36.2667C76.5467 36.2667 76.5333 36.2433 76.5333 36.2167C76.5333 36.19 76.52 36.1667 76.5 36.1667C76.48 36.1667 76.4667 36.1433 76.4667 36.1167C76.4667 36.09 76.4533 36.0667 76.4333 36.0667C76.4133 36.0667 76.4 36.0433 76.4 36.0167C76.4 35.99 76.3867 35.9667 76.3667 35.9667C76.3467 35.9667 76.3333 35.9433 76.3333 35.9167C76.3333 35.89 76.32 35.8667 76.3 35.8667C76.28 35.8667 76.2667 35.8433 76.2667 35.8167C76.2667 35.79 76.2533 35.7667 76.2333 35.7667C76.2133 35.7667 76.2 35.7433 76.2 35.7167C76.2 35.69 76.1867 35.6667 76.1667 35.6667C76.1467 35.6667 76.1333 35.6433 76.1333 35.6167C76.1333 35.59 76.12 35.5667 76.1 35.5667C76.08 35.5667 76.0667 35.5433 76.0667 35.5167C76.0667 35.49 76.0533 35.4667 76.0333 35.4667C76.0133 35.4667 76 35.4433 76 35.4167C76 35.39 75.9867 35.3667 75.9667 35.3667C75.9467 35.3667 75.9333 35.3433 75.9333 35.3167C75.9333 35.29 75.92 35.2667 75.9 35.2667C75.88 35.2667 75.8667 35.2433 75.8667 35.2167C75.8667 35.19 75.8533 35.1667 75.8333 35.1667C75.8133 35.1667 75.8 35.1433 75.8 35.1167C75.8 35.09 75.7867 35.0667 75.7667 35.0667C75.7467 35.0667 75.7333 35.0433 75.7333 35.0167C75.7333 34.99 75.72 34.9667 75.7 34.9667C75.68 34.9667 75.6667 34.9433 75.6667 34.9167C75.6667 34.89 75.6533 34.8667 75.6333 34.8667C75.6133 34.8667 75.6 34.8433 75.6 34.8167C75.6 34.79 75.5867 34.7667 75.5667 34.7667C75.5467 34.7667 75.5333 34.7433 75.5333 34.7167C75.5333 34.69 75.52 34.6667 75.5 34.6667C75.48 34.6667 75.4667 34.6433 75.4667 34.6167C75.4667 34.59 75.4533 34.5667 75.4333 34.5667C75.4133 34.5667 75.4 34.5433 75.4 34.5167C75.4 34.49 75.3867 34.4667 75.3667 34.4667C75.3467 34.4667 75.3333 34.4433 75.3333 34.4167C75.3333 34.39 75.32 34.3667 75.3 34.3667C75.28 34.3667 75.2667 34.3433 75.2667 34.3167C75.2667 34.29 75.2533 34.2667 75.2333 34.2667C75.2133 34.2667 75.2 34.2433 75.2 34.2167C75.2 34.19 75.1867 34.1667 75.1667 34.1667C75.1467 34.1667 75.1333 34.1433 75.1333 34.1167C75.1333 34.09 75.12 34.0667 75.1 34.0667C75.08 34.0667 75.0667 34.0433 75.0667 34.0167C75.0667 33.99 75.0533 33.9667 75.0333 33.9667C75.0133 33.9667 75 33.9433 75 33.9167C75 33.89 74.9867 33.8667 74.9667 33.8667C74.9467 33.8667 74.9333 33.8433 74.9333 33.8167C74.9333 33.79 74.92 33.7667 74.9 33.7667C74.88 33.7667 74.8667 33.7433 74.8667 33.7167C74.8667 33.69 74.8533 33.6667 74.8333 33.6667C74.8133 33.6667 74.8 33.6467 74.8 33.6233C74.8 33.6033 74.77 33.5633 74.7333 33.54C74.6967 33.52 74.6667 33.4767 74.6667 33.45C74.6667 33.4233 74.6567 33.4 74.6433 33.4C74.6267 33.4 74.5933 33.36 74.5667 33.31C74.54 33.2567 74.49 33.1867 74.4567 33.15C74.4267 33.1133 74.4 33.0733 74.4 33.0567C74.4 33.0433 74.37 33 74.3333 32.9567C74.2967 32.9167 74.2667 32.8633 74.2667 32.84C74.2667 32.82 74.2533 32.8 74.2333 32.8C74.2133 32.8 74.2 32.7767 74.2 32.75C74.2 32.7233 74.1867 32.7 74.1667 32.7C74.1467 32.7 74.1333 32.6767 74.1333 32.65C74.1333 32.6233 74.12 32.6 74.1 32.6C74.08 32.6 74.0667 32.5767 74.0667 32.55C74.0667 32.5233 74.0533 32.5 74.0333 32.5C74.0133 32.5 74 32.4767 74 32.45C74 32.4233 73.9867 32.4 73.9667 32.4C73.9467 32.4 73.9333 32.38 73.9333 32.3567C73.9333 32.3367 73.9033 32.2967 73.8667 32.2733C73.83 32.2533 73.8 32.21 73.8 32.1833C73.8 32.1567 73.79 32.1333 73.7767 32.1333C73.76 32.1333 73.7267 32.0933 73.7 32.0433C73.6733 31.99 73.6233 31.92 73.59 31.8833C73.56 31.8467 73.5333 31.7967 73.5333 31.7733C73.5333 31.7533 73.52 31.7333 73.5 31.7333C73.48 31.7333 73.4667 31.71 73.4667 31.6833C73.4667 31.6567 73.4533 31.6333 73.4333 31.6333C73.4133 31.6333 73.4 31.62 73.4 31.6C73.4 31.58 73.3533 31.5167 73.3 31.4567C73.2433 31.4 73.1967 31.34 73.2 31.3233C73.2 31.31 73.17 31.2667 73.1333 31.2233C73.0967 31.1833 73.0667 31.13 73.0667 31.1067C73.0667 31.0867 73.0533 31.0667 73.0333 31.0667C73.0133 31.0667 73 31.0433 73 31.0167C73 30.99 72.9867 30.9667 72.9667 30.9667C72.9467 30.9667 72.9333 30.9533 72.9333 30.9333C72.9333 30.9133 72.8867 30.85 72.8333 30.79C72.7767 30.7333 72.73 30.6633 72.7333 30.64C72.7333 30.62 72.72 30.6 72.7 30.6C72.68 30.6 72.6667 30.5767 72.6667 30.55C72.6667 30.5233 72.6533 30.5 72.6333 30.5C72.6133 30.5 72.6 30.4867 72.6 30.4667C72.6 30.4467 72.5533 30.3833 72.5 30.3233C72.4433 30.2667 72.3967 30.2067 72.4 30.19C72.4 30.1767 72.37 30.1333 72.3333 30.09C72.2967 30.05 72.2667 29.9967 72.2667 29.9733C72.2667 29.9533 72.2533 29.9333 72.2333 29.9333C72.2133 29.9333 72.2 29.9133 72.2 29.89C72.2 29.87 72.17 29.83 72.1333 29.8067C72.0967 29.7867 72.0667 29.7433 72.0667 29.7167C72.0667 29.69 72.0533 29.6667 72.0333 29.6667C72.0133 29.6667 72 29.6433 72 29.6167C72 29.59 71.9867 29.5667 71.9667 29.5667C71.9467 29.5667 71.9333 29.5533 71.9333 29.5333C71.9333 29.5133 71.8867 29.45 71.8333 29.39C71.7767 29.3333 71.73 29.2633 71.7333 29.24C71.7333 29.22 71.72 29.2 71.7 29.2C71.68 29.2 71.6667 29.18 71.6667 29.1567C71.6667 29.1367 71.6367 29.0967 71.6 29.0733C71.5633 29.0533 71.5333 29.01 71.5333 28.9833C71.5333 28.9567 71.5233 28.9333 71.51 28.9333C71.4933 28.9333 71.46 28.8933 71.4333 28.8433C71.4067 28.7933 71.34 28.7067 71.29 28.65C71.24 28.5967 71.1967 28.53 71.2 28.5067C71.2 28.4867 71.1867 28.4667 71.1667 28.4667C71.1467 28.4667 71.1333 28.4467 71.1333 28.4233C71.1333 28.4033 71.1033 28.3633 71.0667 28.34C71.03 28.32 71 28.2767 71 28.25C71 28.2233 70.9867 28.2 70.9667 28.2C70.9467 28.2 70.9333 28.18 70.9333 28.1567C70.9333 28.1367 70.9033 28.0967 70.8667 28.0733C70.83 28.0533 70.8 28.01 70.8 27.9833C70.8 27.9567 70.7867 27.9333 70.7667 27.9333C70.7467 27.9333 70.7333 27.9133 70.7333 27.89C70.7333 27.87 70.7033 27.83 70.6667 27.8067C70.63 27.7867 70.6 27.7533 70.6 27.7333C70.6 27.7133 70.5567 27.65 70.5 27.59C70.4467 27.5333 70.4 27.4633 70.4 27.44C70.4 27.42 70.3867 27.4 70.3667 27.4C70.3467 27.4 70.3333 27.38 70.3333 27.3567C70.3333 27.3367 70.3033 27.2967 70.2667 27.2733C70.23 27.2533 70.2 27.21 70.2 27.1833C70.2 27.1567 70.1867 27.1333 70.1667 27.1333C70.1467 27.1333 70.1333 27.1133 70.1333 27.09C70.1333 27.07 70.1033 27.03 70.0667 27.0067C70.03 26.9867 70 26.9433 70 26.9167C70 26.89 69.9867 26.8667 69.9667 26.8667C69.9467 26.8667 69.9333 26.8467 69.9333 26.8233C69.9333 26.8033 69.9033 26.7633 69.8667 26.74C69.83 26.72 69.8 26.6767 69.8 26.65C69.8 26.6233 69.7867 26.6 69.7667 26.6C69.7467 26.6 69.7333 26.58 69.7333 26.5567C69.7333 26.5367 69.7033 26.4967 69.6667 26.4733C69.63 26.4533 69.6 26.42 69.6 26.4C69.6 26.38 69.54 26.3033 69.4667 26.2233C69.3933 26.1467 69.3333 26.0633 69.3333 26.04C69.3333 26.02 69.32 26 69.3 26C69.28 26 69.2667 25.98 69.2667 25.9567C69.2667 25.9367 69.2367 25.8967 69.2 25.8733C69.1633 25.8533 69.1333 25.82 69.1333 25.8C69.1333 25.78 69.0733 25.7033 69 25.6233C68.9267 25.5467 68.8667 25.4733 68.8667 25.4567C68.8667 25.4433 68.82 25.3833 68.7667 25.3233C68.71 25.2667 68.6667 25.2033 68.6667 25.1833C68.6667 25.1633 68.6367 25.1267 68.6 25.1C68.5633 25.0733 68.5333 25.0367 68.5333 25.0167C68.5333 24.9967 68.5033 24.9633 68.4667 24.94C68.43 24.92 68.4 24.8867 68.4 24.8667C68.4 24.8467 68.3233 24.7533 68.2333 24.6567C68.14 24.5633 68.0667 24.4733 68.0667 24.4567C68.0667 24.4433 68.0067 24.37 67.9333 24.29C67.86 24.2133 67.8 24.1367 67.8 24.1167C67.8 24.0967 67.77 24.06 67.7333 24.0333C67.6967 24.0067 67.6667 23.9733 67.6667 23.9567C67.6667 23.9433 67.6233 23.8967 67.5667 23.85C67.51 23.8033 67.4667 23.7533 67.4667 23.7333C67.4667 23.7133 67.39 23.62 67.3 23.5233C67.2067 23.43 67.1333 23.34 67.1333 23.3233C67.1333 23.31 67.09 23.2567 67.0333 23.2C66.9767 23.1433 66.9333 23.0933 66.9333 23.0833C66.9333 23.0733 66.89 23.03 66.8333 22.9833C66.7767 22.9367 66.7333 22.8867 66.7333 22.8667C66.7333 22.8467 66.6267 22.7233 66.5 22.59C66.37 22.46 66.2667 22.34 66.2667 22.3233C66.2667 22.31 66.2067 22.24 66.1333 22.1667C66.06 22.0933 66 22.0267 66 22.0167C66 22.0067 65.91 21.9133 65.8 21.8067C65.6867 21.7033 65.5967 21.6067 65.6 21.59C65.6 21.5767 65.4933 21.46 65.3667 21.3333C65.24 21.2067 65.1333 21.0867 65.1333 21.0667C65.1333 21.0467 65.12 21.03 65.1033 21.0233C65.0867 21.02 64.7367 20.6867 64.3267 20.28C63.9167 19.8767 63.5567 19.5333 63.5267 19.5133C63.4967 19.4967 63.3767 19.3933 63.26 19.2833C63.1433 19.1733 63.0133 19.06 62.9667 19.0267C62.92 18.9967 62.8267 18.92 62.76 18.8533C62.69 18.7867 62.6233 18.7333 62.61 18.7333C62.5933 18.7333 62.5267 18.68 62.46 18.6167C62.39 18.5533 62.3233 18.5 62.31 18.5C62.2933 18.5 62.23 18.4533 62.1667 18.3967C62.1033 18.3433 62.0433 18.2967 62.0333 18.3C62.0233 18.3 61.98 18.2667 61.9333 18.2267C61.8867 18.1833 61.81 18.1267 61.7567 18.1C61.7067 18.0733 61.6667 18.04 61.6667 18.0233C61.6667 18.01 61.6467 18 61.6267 18C61.6033 18 61.5533 17.9733 61.5167 17.9433C61.48 17.91 61.3833 17.8467 61.3 17.8033C61.2167 17.7567 61.1433 17.7133 61.1333 17.7033C61.1233 17.6933 60.99 17.6167 60.8333 17.5367C60.6767 17.4567 60.5433 17.38 60.5333 17.37C60.5233 17.36 60.42 17.3 60.3 17.24C60.18 17.18 60.0733 17.1333 60.06 17.1333C60.0433 17.1333 59.88 17.0567 59.6933 16.9667C59.5033 16.8733 59.34 16.8 59.3267 16.8C59.31 16.8 59.2367 16.77 59.16 16.7333C59.08 16.6967 59.0067 16.6667 58.9933 16.6667C58.9767 16.6667 58.91 16.64 58.8433 16.6067C58.7733 16.5733 58.3733 16.43 57.95 16.29C57.5267 16.15 57.0567 16 56.9 15.9533C56.7433 15.91 56.34 15.8033 56 15.7167C55.66 15.6333 54.9767 15.4833 54.4833 15.3833C53.99 15.2867 53.3967 15.1733 53.1667 15.1367C52.9367 15.1 52.5933 15.0467 52.4 15.0167C52.2067 14.99 51.8767 14.9467 51.6667 14.92C51.4567 14.8933 51.0733 14.8467 50.8167 14.8167C50.56 14.79 50.1267 14.7433 49.85 14.72C49.5767 14.6933 48.9667 14.6467 48.5 14.6167C48.0333 14.5867 47.6 14.5567 47.5433 14.5467C47.4733 14.54 47.4333 14.5133 47.4333 14.4833C47.4333 14.44 47.1433 14.4333 45.01 14.44C43.6733 14.4433 41.9767 14.4567 41.2333 14.47ZM0 38.0667C0 38.46 0.00666667 38.5333 0.05 38.5333C0.0766667 38.5333 0.1 38.56 0.1 38.5933C0.1 38.6233 0.15 38.8 0.21 38.9833C0.273333 39.1667 0.41 39.49 0.516667 39.7C0.626667 39.91 0.746667 40.12 0.79 40.1667C0.833333 40.2133 0.866667 40.26 0.866667 40.2767C0.866667 40.29 0.926667 40.3633 1 40.4433C1.07333 40.52 1.13333 40.5933 1.13333 40.61C1.13333 40.6233 1.21 40.71 1.3 40.8C1.39333 40.8933 1.48333 40.9667 1.5 40.9667C1.51667 40.9667 1.57 41.01 1.61667 41.0667C1.66333 41.1233 1.71667 41.1667 1.73333 41.1667C1.75 41.1667 1.76667 41.18 1.76667 41.2C1.76667 41.22 1.79 41.2333 1.81667 41.2333C1.84333 41.2333 1.88667 41.2633 1.91 41.3C1.93 41.3367 1.97 41.3667 1.99333 41.3667C2.01333 41.3667 2.03333 41.38 2.03333 41.4C2.03333 41.42 2.06333 41.4333 2.1 41.4333C2.13667 41.4333 2.16667 41.4467 2.16667 41.4667C2.16667 41.4867 2.19 41.5 2.21667 41.5C2.24333 41.5 2.26667 41.5133 2.26667 41.5333C2.26667 41.5533 2.29667 41.5667 2.33333 41.5667C2.37 41.5667 2.4 41.58 2.4 41.6C2.4 41.62 2.42333 41.6333 2.45 41.6333C2.47667 41.6333 2.5 41.6467 2.5 41.6667C2.5 41.6867 2.53667 41.7 2.58333 41.7C2.63 41.7 2.66667 41.7133 2.66667 41.7333C2.66667 41.7533 2.69667 41.7667 2.73333 41.7667C2.77 41.7667 2.8 41.78 2.8 41.8C2.8 41.82 2.84333 41.8333 2.9 41.8333C2.95667 41.8333 3 41.8467 3 41.8667C3 41.8867 3.03667 41.9 3.08333 41.9C3.13 41.9 3.17333 41.9133 3.18333 41.9333C3.19333 41.9533 3.25333 41.9667 3.31667 41.9667C3.38 41.9667 3.43333 41.98 3.43333 42C3.43333 42.02 3.49667 42.0333 3.57667 42.0333C3.65333 42.0333 3.73333 42.0467 3.75 42.0633C3.76667 42.0833 4.14 42.1067 4.58 42.1233L5.37333 42.15C5.43667 42.28 5.49667 42.4367 5.54667 42.5833C5.59667 42.73 5.65 42.88 5.67 42.9167C5.68667 42.9533 5.74667 43.11 5.8 43.2667C5.85667 43.4233 5.96 43.7067 6.03 43.9C6.1 44.0933 6.20667 44.3867 6.26667 44.55C6.32333 44.7133 6.39333 44.9 6.42 44.96C6.44667 45.0167 6.46667 45.0767 6.46667 45.0933C6.47 45.1067 6.36 45.23 6.22667 45.37C6.09333 45.5067 5.93333 45.7033 5.87667 45.8033C5.81667 45.9 5.72667 46.08 5.68 46.2C5.63 46.32 5.57 46.5133 5.54667 46.6333C5.52 46.7533 5.5 46.9467 5.5 47.0667C5.5 47.1867 5.51667 47.38 5.53667 47.5C5.55333 47.62 5.59333 47.7833 5.62 47.8667C5.65 47.95 5.72667 48.1233 5.79333 48.25C5.86 48.3767 5.95667 48.5267 6.00667 48.5833C6.05667 48.64 6.1 48.6933 6.1 48.71C6.1 48.7233 6.15333 48.7867 6.21667 48.85C6.28 48.9133 6.34333 48.9667 6.36 48.9667C6.37333 48.9667 6.42667 49.0067 6.48333 49.06C6.54 49.11 6.62333 49.1733 6.67667 49.2C6.72667 49.2267 6.76667 49.26 6.76667 49.2767C6.76667 49.29 6.79667 49.3 6.83333 49.3C6.87 49.3 6.9 49.3167 6.9 49.3333C6.9 49.35 6.93667 49.3667 6.98333 49.3667C7.03 49.3667 7.06667 49.3833 7.06667 49.4C7.06667 49.4167 7.10333 49.4333 7.15 49.4333C7.19667 49.4333 7.23333 49.45 7.23333 49.4667C7.23333 49.4833 7.29333 49.5 7.36667 49.5C7.44 49.5 7.5 49.5167 7.5 49.5333C7.5 49.55 7.54 49.5667 7.59333 49.5667C7.66 49.5633 7.69333 49.5867 7.72333 49.6567C7.74667 49.7067 7.82 49.9367 7.88667 50.1667C7.95333 50.3967 8.02 50.6267 8.03333 50.6833C8.05 50.74 8.11 50.94 8.16667 51.1333C8.22667 51.3267 8.3 51.58 8.33333 51.7C8.36667 51.82 8.43333 52.0433 8.48 52.2C8.53 52.3567 8.60333 52.6033 8.64667 52.75C8.69 52.8967 8.76667 53.16 8.82 53.3333C8.87 53.5067 8.94333 53.7633 8.98667 53.9C9.02667 54.0367 9.1 54.2833 9.14667 54.45C9.19667 54.6167 9.27667 54.8933 9.33 55.0667C9.38333 55.24 9.46333 55.51 9.51 55.6667C9.55667 55.8233 9.63333 56.0933 9.68667 56.2667C9.73667 56.44 9.81 56.6967 9.85333 56.8333C9.89333 56.97 9.97333 57.2333 10.0267 57.4167C10.08 57.6 10.1667 57.8933 10.2167 58.0667C10.27 58.24 10.3433 58.4967 10.3867 58.6333C10.4267 58.77 10.5 59.0167 10.5467 59.1833C10.5967 59.35 10.6667 59.59 10.7067 59.7167C10.7467 59.8433 10.8533 60.1 10.9467 60.2833C11.0367 60.4667 11.1433 60.66 11.18 60.7167C11.22 60.77 11.3067 60.8767 11.3733 60.95C11.4433 61.0233 11.5 61.0933 11.5 61.1067C11.5 61.1233 11.5367 61.17 11.5833 61.2167C11.63 61.2633 11.6767 61.3 11.6933 61.3C11.7067 61.3 11.7967 61.3767 11.8933 61.4667C11.9867 61.56 12.0833 61.6333 12.1 61.6333C12.1167 61.6333 12.1333 61.65 12.1333 61.6667C12.1333 61.6833 12.1567 61.7 12.1833 61.7C12.21 61.7 12.2333 61.7167 12.2333 61.7333C12.2333 61.75 12.2633 61.7667 12.3 61.7667C12.3367 61.7667 12.3667 61.7833 12.3667 61.8C12.3667 61.8167 12.39 61.8333 12.4167 61.8333C12.4433 61.8333 12.4667 61.85 12.4667 61.8667C12.4667 61.8833 12.4967 61.9 12.5333 61.9C12.57 61.9 12.6 61.9167 12.6 61.9333C12.6 61.95 12.6367 61.9667 12.6833 61.9667C12.73 61.9667 12.7667 61.9833 12.7667 62C12.7667 62.0167 12.8033 62.0333 12.85 62.0333C12.8967 62.0333 12.9333 62.05 12.9333 62.0667C12.9333 62.0833 12.9767 62.1 13.0333 62.1C13.09 62.1 13.1333 62.1167 13.1333 62.1333C13.1333 62.1533 13.1933 62.1667 13.2667 62.1667C13.34 62.1667 13.4 62.18 13.4 62.2C13.4 62.22 13.51 62.2333 13.6667 62.2333C13.8233 62.2333 13.9333 62.2467 13.9333 62.2667C13.9333 62.2867 14.2033 62.3 14.6767 62.3C15.0833 62.3 15.4333 62.2867 15.45 62.2733C15.47 62.26 15.5267 62.1433 15.5767 62.0167C15.63 61.89 15.71 61.7333 15.7533 61.6733C15.7967 61.6167 15.8333 61.5567 15.8333 61.5433C15.8333 61.5267 15.9767 61.3733 16.1533 61.2C16.33 61.0267 16.5 60.8667 16.5333 60.85C16.5633 60.8333 16.67 60.7733 16.77 60.72C16.87 60.6667 17.0633 60.5867 17.2 60.5433C17.4033 60.4767 17.5467 60.4567 17.9767 60.44C18.3833 60.42 18.5 60.4267 18.5 60.46C18.5 60.4833 18.55 60.5 18.6333 60.5C18.7067 60.5 18.7667 60.5167 18.7667 60.5333C18.7667 60.55 18.8033 60.5667 18.85 60.5667C18.8967 60.5667 18.9333 60.5833 18.9333 60.6C18.9333 60.6167 18.97 60.6333 19.0167 60.6333C19.0633 60.6333 19.1 60.65 19.1 60.6667C19.1 60.6833 19.13 60.7 19.1667 60.7C19.2033 60.7 19.2333 60.7167 19.2333 60.7333C19.2333 60.75 19.2567 60.7667 19.2833 60.7667C19.31 60.7667 19.3333 60.7833 19.3333 60.8C19.3333 60.8167 19.3567 60.8333 19.3833 60.8333C19.41 60.8333 19.4333 60.85 19.4333 60.8667C19.4333 60.8833 19.4533 60.9 19.4767 60.9C19.4967 60.9 19.6167 60.9967 19.7433 61.1167C19.8667 61.2367 19.9667 61.34 19.9667 61.35C19.9667 61.36 19.9933 61.3967 20.0267 61.43C20.0567 61.4667 20.1033 61.52 20.1267 61.5467C20.1467 61.5767 20.2267 61.72 20.3 61.8667C20.3733 62.0133 20.4333 62.1533 20.4333 62.1767C20.4333 62.1967 20.45 62.2367 20.4733 62.26C20.5067 62.2933 21.04 62.3 23.01 62.3H25.5C25.56 62.1067 25.6333 61.9433 25.7 61.8167C25.7667 61.69 25.85 61.5467 25.8833 61.5C25.92 61.4567 26.07 61.2967 26.2167 61.1467C26.3633 61 26.5167 60.8667 26.56 60.8567C26.6 60.8433 26.6333 60.8167 26.6333 60.8C26.6333 60.7833 26.65 60.7733 26.6667 60.7833C26.6833 60.7933 26.72 60.7767 26.7433 60.7467C26.7633 60.72 26.88 60.66 27 60.6133C27.12 60.57 27.3233 60.51 27.45 60.4833C27.5867 60.4567 27.86 60.4333 28.11 60.4333C28.37 60.4333 28.5333 60.4467 28.5333 60.4667C28.5333 60.4833 28.5933 60.5 28.6667 60.5C28.74 60.5 28.8 60.5167 28.8 60.5333C28.8 60.55 28.8367 60.5667 28.8833 60.5667C28.93 60.5667 28.9667 60.5833 28.9667 60.6C28.9667 60.6167 29.0233 60.65 29.0933 60.67C29.16 60.6933 29.2533 60.7367 29.3 60.7733C29.3467 60.8067 29.3933 60.8367 29.41 60.8333C29.4233 60.8333 29.4633 60.86 29.5 60.89C29.5333 60.9233 29.6033 60.9833 29.65 61.0233C29.6967 61.0667 29.75 61.1 29.7667 61.1C29.7833 61.1 29.8333 61.1433 29.8767 61.1967C29.9167 61.25 29.98 61.3333 30.0167 61.3833C30.0533 61.4367 30.1033 61.4967 30.1267 61.5233C30.1467 61.5467 30.1667 61.5833 30.1667 61.6C30.1667 61.6167 30.1767 61.6333 30.1933 61.6333C30.2067 61.6333 30.2633 61.7333 30.32 61.8567C30.3767 61.9833 30.4467 62.1333 30.47 62.1967L30.5167 62.31C32.3267 62.2767 32.64 62.26 32.8167 62.22C32.9433 62.19 33.1633 62.1267 33.3 62.0767C33.4367 62.03 33.6267 61.9533 33.7167 61.9067C33.81 61.8633 33.89 61.81 33.9 61.7933C33.91 61.7767 33.9233 61.7667 33.9333 61.77C33.9433 61.7767 34.03 61.73 34.1267 61.6667C34.22 61.6033 34.3 61.54 34.3 61.5233C34.3 61.51 34.32 61.5 34.3433 61.5C34.3633 61.5 34.5033 61.3767 34.65 61.2233C34.8 61.0733 34.95 60.9 34.9833 60.84C35.02 60.78 35.06 60.7333 35.0767 60.7333C35.09 60.7333 35.1067 60.7033 35.1167 60.6667C35.1267 60.63 35.1533 60.58 35.1767 60.56C35.2 60.5367 35.2733 60.4033 35.34 60.2667C35.4067 60.13 35.4933 59.91 35.5333 59.7833C35.5767 59.6567 35.6133 59.5333 35.6167 59.5167C35.6167 59.5 35.6467 59.3933 35.68 59.2833C35.7133 59.1733 35.7467 59.06 35.7533 59.0333C35.76 59.0067 35.7933 58.8767 35.83 58.75C35.8633 58.6233 35.9633 58.27 36.05 57.9667C36.1367 57.6633 36.21 57.4 36.2133 57.3833C36.2167 57.3667 36.2467 57.26 36.28 57.15C36.3133 57.04 36.3433 56.9333 36.3467 56.9167C36.35 56.9 36.38 56.7933 36.4133 56.6833C36.4467 56.5733 36.4767 56.4667 36.48 56.45C36.4867 56.4333 36.5067 56.35 36.53 56.2667C36.5533 56.1833 36.6533 55.8233 36.7567 55.4667C36.8567 55.11 36.9433 54.8 36.9467 54.7833C36.95 54.7667 36.98 54.66 37.0133 54.55C37.0467 54.44 37.0767 54.3333 37.08 54.3167C37.0833 54.3 37.1133 54.1933 37.1433 54.0833C37.1767 53.9733 37.2233 53.81 37.25 53.7167C37.2767 53.6267 37.38 53.25 37.4867 52.8833C37.59 52.5167 37.6767 52.2 37.68 52.1833C37.6833 52.1667 37.7133 52.06 37.7467 51.95C37.78 51.84 37.8133 51.7267 37.82 51.7C37.8267 51.6733 37.8667 51.5167 37.9133 51.35C37.96 51.1833 38.09 50.72 38.2067 50.3167L38.4167 49.5833C38.8133 49.4533 38.94 49.4067 38.9533 49.3933C38.9667 49.3767 39.0067 49.3667 39.04 49.3667C39.0733 49.3667 39.1 49.3567 39.1 49.3433C39.1 49.3267 39.1767 49.28 39.2667 49.2333C39.36 49.1867 39.4333 49.14 39.4333 49.1267C39.4333 49.11 39.4467 49.1 39.4667 49.1C39.4867 49.1 39.5467 49.06 39.6033 49.01C39.66 48.9567 39.74 48.88 39.78 48.8367C39.8167 48.79 39.8733 48.73 39.9 48.7033C39.9267 48.6733 40.01 48.56 40.0833 48.45C40.16 48.34 40.25 48.1767 40.2833 48.0833C40.32 47.9933 40.35 47.9 40.3567 47.8833C40.36 47.8667 40.3867 47.7667 40.4133 47.6667C40.4467 47.55 40.4667 47.34 40.4667 47.09C40.4667 46.8767 40.4533 46.6733 40.4367 46.6433C40.4167 46.61 40.3967 46.5133 40.3867 46.4267C40.3733 46.3367 40.3433 46.2433 40.3167 46.2167C40.29 46.19 40.2667 46.1367 40.2667 46.1C40.2667 46.0633 40.2533 46.0333 40.2333 46.0333C40.2133 46.0333 40.2 46.0033 40.2 45.9667C40.2 45.93 40.1867 45.9 40.1667 45.9C40.1467 45.9 40.1333 45.8767 40.1333 45.85C40.1333 45.8233 40.1033 45.77 40.0667 45.7333C40.03 45.6967 40 45.66 40 45.65C40 45.64 39.9667 45.5933 39.9267 45.5433C39.8833 45.49 39.79 45.39 39.7167 45.3167C39.6433 45.2433 39.5467 45.1567 39.5067 45.1267C39.4667 45.0933 39.42 45.0667 39.4 45.0667C39.38 45.0667 39.3667 45.0533 39.3667 45.0333C39.3667 45.0133 39.34 44.9933 39.31 44.9833C39.2767 44.9767 39.19 44.9333 39.1167 44.8933C39.0433 44.85 38.9 44.7867 38.8 44.75C38.7 44.7167 38.5567 44.6733 38.4833 44.6533C38.3933 44.63 33.7833 44.6133 24.7167 44.6L11.0833 44.5833C11.07 44.4167 11.05 44.3667 11.0333 44.3667C11.0167 44.3667 11 44.33 11 44.2833C11 44.2367 10.9833 44.2 10.9667 44.2C10.95 44.2 10.9333 44.1567 10.9333 44.1C10.9333 44.0433 10.9167 44 10.9 44C10.8833 44 10.8667 43.9633 10.8667 43.9167C10.8667 43.87 10.85 43.8333 10.8333 43.8333C10.8167 43.8333 10.8 43.79 10.8 43.7333C10.8 43.6767 10.7833 43.6333 10.7667 43.6333C10.75 43.6333 10.7333 43.5967 10.7333 43.55C10.7333 43.5033 10.7167 43.4667 10.7 43.4667C10.6833 43.4667 10.6667 43.4233 10.6667 43.3667C10.6667 43.31 10.65 43.2667 10.6333 43.2667C10.6167 43.2667 10.6 43.23 10.6 43.1833C10.6 43.1367 10.5833 43.1 10.5667 43.1C10.55 43.1 10.5333 43.0633 10.5333 43.0167C10.5333 42.97 10.5167 42.9333 10.5 42.9333C10.4833 42.9333 10.4667 42.89 10.4667 42.8333C10.4667 42.7767 10.45 42.7333 10.4333 42.7333C10.4167 42.7333 10.4 42.6967 10.4 42.65C10.4 42.6033 10.3833 42.5667 10.3667 42.5667C10.35 42.5667 10.3333 42.5233 10.3333 42.4667C10.3333 42.41 10.3167 42.3667 10.3 42.3667C10.2833 42.3667 10.2667 42.33 10.2667 42.2833C10.2667 42.2367 10.25 42.2 10.2333 42.2C10.2167 42.2 10.2 42.1567 10.2 42.1C10.2 42.0433 10.1833 42 10.1667 42C10.15 42 10.1333 41.9633 10.1333 41.9167C10.1333 41.87 10.1167 41.8333 10.1 41.8333C10.0833 41.8333 10.0667 41.79 10.0667 41.7333C10.0667 41.6767 10.05 41.6333 10.0333 41.6333C10.0167 41.6333 10 41.5967 10 41.55C10 41.5033 9.98333 41.4667 9.96667 41.4667C9.95 41.4667 9.93333 41.4233 9.93333 41.3667C9.93333 41.31 9.91667 41.2667 9.9 41.2667C9.88333 41.2667 9.86667 41.23 9.86667 41.1833C9.86667 41.1367 9.85 41.1 9.83333 41.1C9.81667 41.1 9.8 41.0633 9.8 41.0167C9.8 40.97 9.78333 40.9333 9.76667 40.9333C9.75 40.9333 9.73333 40.89 9.73333 40.8333C9.73333 40.7767 9.71667 40.7333 9.7 40.7333C9.68333 40.7333 9.66667 40.6967 9.66667 40.65C9.66667 40.6033 9.65 40.5667 9.63333 40.5667C9.61667 40.5667 9.6 40.5233 9.6 40.4667C9.6 40.41 9.58333 40.3667 9.56667 40.3667C9.55 40.3667 9.53333 40.33 9.53333 40.2833C9.53333 40.2367 9.51667 40.2 9.5 40.2C9.48333 40.2 9.46667 40.1567 9.46667 40.1C9.46667 40.0433 9.45 40 9.43333 40C9.41667 40 9.4 39.9633 9.4 39.9167C9.4 39.87 9.38333 39.8333 9.36667 39.8333C9.35 39.8333 9.33333 39.79 9.33333 39.7333C9.33333 39.6767 9.31667 39.6333 9.3 39.6333C9.28333 39.6333 9.26667 39.5967 9.26667 39.55C9.26667 39.5033 9.25 39.4667 9.23333 39.4667C9.21667 39.4667 9.2 39.4233 9.2 39.3667C9.2 39.31 9.18333 39.2667 9.16667 39.2667C9.15 39.2667 9.13333 39.23 9.13333 39.1833C9.13333 39.1367 9.11667 39.1 9.1 39.1C9.08333 39.1 9.06667 39.0633 9.06667 39.0167C9.06667 38.97 9.05 38.9333 9.03333 38.9333C9.01667 38.9333 9 38.89 9 38.8333C9 38.7767 8.98333 38.7333 8.96667 38.7333C8.95 38.7333 8.93333 38.6967 8.93333 38.65C8.93333 38.6033 8.91667 38.5667 8.9 38.5667C8.88333 38.5667 8.86667 38.5233 8.86667 38.4667C8.86667 38.41 8.85 38.3667 8.83333 38.3667C8.81667 38.3667 8.8 38.33 8.8 38.2833C8.8 38.2367 8.78333 38.2 8.76667 38.2C8.75 38.2 8.73333 38.1567 8.73333 38.1C8.73333 38.0433 8.71667 38 8.7 38C8.68333 38 8.66667 37.9633 8.66667 37.9167C8.66667 37.87 8.65 37.8333 8.63333 37.8333C8.61667 37.8333 8.6 37.79 8.6 37.7333C8.6 37.6733 8.58 37.6267 8.55 37.6167C8.52333 37.6067 6.58667 37.6 4.25 37.6H0L0 38.0667ZM12.9333 49.6H16.05L16.0767 49.7733C16.0933 49.87 16.14 50.2267 16.1833 50.5667C16.23 50.9067 16.3033 51.4667 16.35 51.8167C16.3967 52.1667 16.47 52.7333 16.5167 53.0833C16.56 53.4333 16.6367 54.01 16.6833 54.3667C16.73 54.7233 16.8067 55.3 16.8533 55.65C16.9033 56.04 16.9267 56.34 16.9133 56.4333C16.9033 56.5167 16.86 56.65 16.8167 56.7333C16.7733 56.8167 16.68 56.94 16.61 57.0067C16.54 57.0733 16.41 57.1633 16.3167 57.2033C16.1967 57.26 16.0867 57.28 15.9167 57.28C15.7467 57.28 15.64 57.26 15.5267 57.2067C15.4367 57.1667 15.3 57.0667 15.2167 56.9833C15.1333 56.9 15.0667 56.81 15.0667 56.7833C15.0667 56.7567 15.05 56.7333 15.0333 56.7333C15.0167 56.7333 15 56.6967 15 56.65C15 56.6033 14.9833 56.5667 14.9667 56.5667C14.95 56.5667 14.9333 56.5133 14.9333 56.45C14.9333 56.3867 14.9167 56.3333 14.9 56.3333C14.8833 56.3333 14.8667 56.28 14.8667 56.2167C14.8667 56.1533 14.85 56.1 14.8333 56.1C14.8167 56.1 14.8 56.0567 14.8 56C14.8 55.9433 14.7833 55.9 14.7667 55.9C14.75 55.9 14.7333 55.8467 14.7333 55.7833C14.7333 55.72 14.7167 55.6667 14.7 55.6667C14.6833 55.6667 14.6667 55.6133 14.6667 55.55C14.6667 55.4867 14.65 55.4333 14.6333 55.4333C14.6167 55.4333 14.6 55.38 14.6 55.3167C14.6 55.2533 14.5833 55.2 14.5667 55.2C14.55 55.2 14.5333 55.1567 14.5333 55.1C14.5333 55.0433 14.5167 55 14.5 55C14.4833 55 14.4667 54.9467 14.4667 54.8833C14.4667 54.82 14.45 54.7667 14.4333 54.7667C14.4167 54.7667 14.4 54.7133 14.4 54.65C14.4 54.5867 14.3833 54.5333 14.3667 54.5333C14.35 54.5333 14.3333 54.48 14.3333 54.4167C14.3333 54.3533 14.3167 54.3 14.3 54.3C14.2833 54.3 14.2667 54.2567 14.2667 54.2C14.2667 54.1433 14.25 54.1 14.2333 54.1C14.2167 54.1 14.2 54.0467 14.2 53.9833C14.2 53.92 14.1833 53.8667 14.1667 53.8667C14.15 53.8667 14.1333 53.8133 14.1333 53.75C14.1333 53.6867 14.1167 53.6333 14.1 53.6333C14.0833 53.6333 14.0667 53.58 14.0667 53.5167C14.0667 53.4533 14.05 53.4 14.0333 53.4C14.0167 53.4 14 53.3467 14 53.2833C14 53.22 13.9833 53.1667 13.9667 53.1667C13.95 53.1667 13.9333 53.1233 13.9333 53.0667C13.9333 53.01 13.9167 52.9667 13.9 52.9667C13.8833 52.9667 13.8667 52.9133 13.8667 52.85C13.8667 52.7867 13.85 52.7333 13.8333 52.7333C13.8167 52.7333 13.8 52.68 13.8 52.6167C13.8 52.5533 13.7833 52.5 13.7667 52.5C13.75 52.5 13.7333 52.4467 13.7333 52.3833C13.7333 52.32 13.7167 52.2667 13.7 52.2667C13.6833 52.2667 13.6667 52.2233 13.6667 52.1667C13.6667 52.11 13.65 52.0667 13.6333 52.0667C13.6167 52.0667 13.6 52.0133 13.6 51.95C13.6 51.8867 13.5833 51.8333 13.5667 51.8333C13.55 51.8333 13.5333 51.78 13.5333 51.7167C13.5333 51.6533 13.5167 51.6 13.5 51.6C13.4833 51.6 13.4667 51.5467 13.4667 51.4833C13.4667 51.42 13.45 51.3667 13.4333 51.3667C13.4167 51.3667 13.4 51.3233 13.4 51.2667C13.4 51.21 13.3833 51.1667 13.3667 51.1667C13.35 51.1667 13.3333 51.1133 13.3333 51.05C13.3333 50.9867 13.3167 50.9333 13.3 50.9333C13.2833 50.9333 13.2667 50.88 13.2667 50.8167C13.2667 50.7533 13.25 50.7 13.2333 50.7C13.2167 50.7 13.2 50.6467 13.2 50.5833C13.2 50.52 13.1833 50.4667 13.1667 50.4667C13.15 50.4667 13.1333 50.4233 13.1333 50.3667C13.1333 50.31 13.1167 50.2667 13.1 50.2667C13.0833 50.2667 13.0667 50.2133 13.0667 50.15C13.0667 50.0867 13.05 50.0333 13.0333 50.0333C13.0167 50.0333 13 49.98 13 49.9167C13 49.8533 12.9833 49.8 12.9667 49.8C12.95 49.8 12.9333 49.7567 12.9333 49.7V49.6ZM21.13 49.6267C21.13 49.61 21.9533 49.6 24.7833 49.6L24.76 49.8067C24.7467 49.9233 24.63 51.4733 24.4967 53.25C24.3067 55.8467 24.2467 56.5167 24.1967 56.65C24.1633 56.7433 24.0733 56.8833 23.9933 56.9667C23.9133 57.05 23.7767 57.1567 23.6833 57.2C23.5333 57.2733 23.4733 57.2833 23.1167 57.2833C22.7433 57.2833 22.7033 57.2767 22.5333 57.19C22.4333 57.1367 22.3 57.0467 22.24 56.99C22.18 56.93 22.1333 56.8633 22.1333 56.8433C22.1333 56.82 22.1167 56.8 22.1 56.8C22.0833 56.8 22.0667 56.7633 22.0667 56.7167C22.0667 56.67 22.0567 56.6333 22.0433 56.6333C22.0267 56.6333 21.9967 56.4533 21.9767 56.2333C21.9533 56.0133 21.9167 55.8333 21.9 55.8333C21.88 55.8333 21.8667 55.7267 21.8667 55.5833C21.8667 55.44 21.8533 55.3333 21.8333 55.3333C21.8133 55.3333 21.8 55.2233 21.8 55.0667C21.8 54.91 21.7867 54.8 21.7667 54.8C21.7467 54.8 21.7333 54.7 21.7333 54.5667C21.7333 54.44 21.7167 54.3267 21.7 54.3167C21.6833 54.3067 21.6667 54.1867 21.6667 54.05C21.6667 53.9067 21.6533 53.8 21.6333 53.8C21.6133 53.8 21.6 53.6933 21.6 53.55C21.6 53.4067 21.5867 53.3 21.5667 53.3C21.5467 53.3 21.5333 53.1933 21.5333 53.05C21.5333 52.9067 21.52 52.8 21.5 52.8C21.48 52.8 21.4667 52.6933 21.4667 52.55C21.4667 52.4133 21.45 52.2933 21.4333 52.2833C21.4167 52.2733 21.4 52.1533 21.4 52.0167C21.4 51.8733 21.3867 51.7667 21.3667 51.7667C21.3467 51.7667 21.3333 51.66 21.3333 51.5167C21.3333 51.3733 21.32 51.2667 21.3 51.2667C21.28 51.2667 21.2667 51.16 21.2667 51.0167C21.2667 50.8733 21.2533 50.7667 21.2333 50.7667C21.2133 50.7667 21.2 50.66 21.2 50.5167C21.2 50.38 21.1867 50.2633 21.17 50.26C21.1533 50.2533 21.1367 50.1167 21.1333 49.95C21.13 49.7833 21.1267 49.64 21.13 49.6267ZM29.7833 49.6433C29.7967 49.61 30.17 49.6 33.2333 49.6L33.1367 49.9267C33.0833 50.1033 32.8633 50.8733 32.65 51.6333C32.4367 52.3933 32.1367 53.46 31.9833 54C31.83 54.54 31.6 55.3667 31.4667 55.8333C31.29 56.4633 31.2 56.7267 31.1233 56.8467C31.0633 56.9367 30.9533 57.0533 30.8733 57.1067C30.7967 57.1567 30.64 57.2233 30.5233 57.2533C30.3833 57.29 30.2633 57.3 30.15 57.2833C30.0567 57.27 29.9233 57.2333 29.85 57.2C29.7767 57.1667 29.66 57.09 29.5933 57.03C29.5267 56.9667 29.47 56.8967 29.4667 56.8767C29.4667 56.8533 29.45 56.8333 29.4333 56.8333C29.4167 56.8333 29.4 56.81 29.4 56.7833C29.4 56.7567 29.38 56.7267 29.3567 56.7233C29.3267 56.7133 29.3167 56.5967 29.3167 56.28C29.3167 56.0433 29.3267 55.6833 29.3433 55.4833C29.3567 55.2833 29.3733 55.0333 29.3833 54.9333C29.3933 54.8333 29.4133 54.54 29.4333 54.2833C29.4533 54.0267 29.4767 53.72 29.4833 53.6C29.4933 53.48 29.5167 53.18 29.5333 52.9333C29.55 52.6867 29.5967 52.0767 29.6333 51.5833C29.67 51.09 29.7167 50.4567 29.7333 50.1833C29.7533 49.91 29.7767 49.6633 29.7833 49.6433ZM96.3833 67.7233C96.2567 67.75 96.0533 67.81 95.9333 67.86C95.8133 67.9067 95.6267 67.9967 95.5167 68.06C95.4067 68.1233 95.22 68.25 95.1 68.34C94.9833 68.4333 94.8333 68.58 94.7667 68.6633C94.7 68.7467 94.6 68.8833 94.5433 68.9667C94.4867 69.05 94.3967 69.2067 94.3433 69.3167C94.2867 69.4267 94.21 69.6133 94.1733 69.7333C94.1333 69.8533 94.0867 70.04 94.0667 70.15C94.05 70.26 94.0333 70.49 94.0333 70.66C94.0333 70.8267 94.0567 71.0667 94.0833 71.1933C94.1067 71.3167 94.16 71.5067 94.2 71.6167C94.24 71.7267 94.3267 71.9233 94.3933 72.05C94.46 72.1767 94.5433 72.3133 94.5767 72.35C94.6067 72.3867 94.6333 72.43 94.6367 72.45C94.6367 72.47 94.76 72.6033 94.91 72.75C95.06 72.8967 95.2233 73.04 95.2767 73.0667C95.3267 73.0933 95.3667 73.1267 95.3667 73.1433C95.3667 73.1567 95.39 73.1667 95.4167 73.1667C95.4433 73.1667 95.4667 73.18 95.4667 73.2C95.4667 73.22 95.4933 73.2333 95.5233 73.2333C95.5567 73.2333 95.6167 73.2633 95.6567 73.3C95.7 73.3367 95.7633 73.3667 95.8 73.3667C95.8367 73.3667 95.8667 73.38 95.8667 73.4C95.8667 73.42 95.9033 73.4333 95.95 73.4333C95.9967 73.4333 96.0333 73.4467 96.0333 73.4667C96.0333 73.4867 96.0867 73.5 96.15 73.5C96.2133 73.5 96.2667 73.5133 96.2667 73.5333C96.2667 73.5533 96.3333 73.5667 96.4167 73.5667C96.5 73.5667 96.5733 73.58 96.5833 73.6C96.5933 73.62 96.76 73.6333 96.9733 73.6333C97.18 73.6333 97.4333 73.62 97.5333 73.6C97.6333 73.58 97.8 73.54 97.9 73.51C98 73.48 98.21 73.39 98.3667 73.3133C98.5233 73.2367 98.6733 73.15 98.7 73.12C98.7267 73.0867 98.7633 73.0667 98.7833 73.0667C98.8033 73.0667 98.9567 72.93 99.1267 72.76C99.2967 72.59 99.4333 72.4367 99.4333 72.4167C99.43 72.3967 99.4533 72.36 99.4867 72.3333C99.5167 72.3067 99.6033 72.1567 99.68 72C99.76 71.8433 99.8333 71.6733 99.85 71.6167C99.8667 71.56 99.8767 71.5067 99.8733 71.4933C99.87 71.4767 99.8967 71.4667 99.9333 71.4667C99.9967 71.4667 100 71.4433 100 70.8333C100 70.4433 99.9867 70.1933 99.9667 70.1833C99.9467 70.1733 99.9333 70.1 99.9333 70.0167C99.9333 69.9333 99.92 69.8667 99.9 69.8667C99.88 69.8667 99.8667 69.8233 99.8667 69.7667C99.8667 69.71 99.8533 69.6667 99.8333 69.6667C99.8133 69.6667 99.8 69.63 99.8 69.5833C99.8 69.5367 99.7867 69.5 99.7667 69.5C99.7467 69.5 99.7333 69.4633 99.7333 69.4167C99.7333 69.37 99.72 69.3333 99.7 69.3333C99.68 69.3333 99.6667 69.3033 99.6667 69.2667C99.6667 69.23 99.6567 69.2 99.64 69.2C99.6267 69.2 99.5933 69.16 99.5667 69.11C99.54 69.0567 99.49 68.9867 99.4567 68.95C99.4267 68.9133 99.4 68.8733 99.4 68.86C99.4 68.8433 99.2767 68.71 99.1233 68.5567C98.9733 68.4033 98.7733 68.23 98.6833 68.1733C98.59 68.1167 98.5033 68.0567 98.4833 68.0433C98.4633 68.0267 98.4133 68 98.3667 67.9767C98.32 67.9533 98.2067 67.9067 98.1167 67.87C98.0233 67.8333 97.8267 67.7733 97.6733 67.7333C97.4733 67.6833 97.2967 67.6667 97.0067 67.67C96.7933 67.67 96.51 67.6933 96.3833 67.7233ZM17.7167 61.29C17.66 61.2967 17.54 61.3267 17.45 61.3567C17.3567 61.3867 17.2133 61.4433 17.1233 61.4867C17.0367 61.53 16.8633 61.6667 16.74 61.7933C16.5867 61.9433 16.4733 62.0933 16.3933 62.25C16.3267 62.3867 16.26 62.5867 16.2333 62.7333C16.21 62.8733 16.2 63.07 16.2133 63.1833C16.2233 63.2933 16.2633 63.4767 16.3 63.5933C16.3367 63.7067 16.43 63.8933 16.5067 64.0067C16.5867 64.1233 16.6833 64.25 16.7233 64.29C16.7667 64.3333 16.8167 64.3667 16.8333 64.3667C16.85 64.3667 16.8867 64.3967 16.9067 64.4333C16.93 64.47 16.97 64.5 16.99 64.5C17.0133 64.5 17.0333 64.5133 17.0333 64.5333C17.0333 64.5533 17.0633 64.5667 17.1 64.5667C17.1367 64.5667 17.1667 64.5767 17.1667 64.5933C17.1667 64.6067 17.2033 64.6367 17.25 64.66C17.2967 64.68 17.37 64.7 17.4167 64.7C17.4633 64.7 17.5067 64.72 17.51 64.7433C17.52 64.7733 17.6333 64.7833 17.9367 64.7833C18.3067 64.7833 18.3733 64.7733 18.5833 64.6933C18.71 64.6433 18.8533 64.57 18.9 64.5333C18.9467 64.4967 18.9933 64.4667 19.0067 64.4667C19.0233 64.4667 19.1033 64.3967 19.19 64.3067C19.28 64.22 19.3967 64.08 19.4533 64C19.51 63.9167 19.59 63.7533 19.6333 63.6333C19.69 63.4733 19.7133 63.3233 19.7233 63.0767C19.73 62.8633 19.72 62.7333 19.7 62.7333C19.6833 62.7333 19.6667 62.6733 19.6667 62.6C19.6667 62.5267 19.65 62.4667 19.6333 62.4667C19.6167 62.4667 19.6 62.43 19.6 62.3833C19.6 62.3367 19.5833 62.3 19.5667 62.3C19.55 62.3 19.5333 62.27 19.5333 62.2333C19.5333 62.1967 19.5167 62.1667 19.5 62.1667C19.4833 62.1667 19.4667 62.1433 19.4667 62.1167C19.4667 62.09 19.4367 62.0367 19.4 62C19.3633 61.9633 19.3333 61.9233 19.3333 61.91C19.3333 61.8933 19.2867 61.8467 19.23 61.8C19.1733 61.7533 19.1 61.69 19.0633 61.66C19.03 61.6267 18.9833 61.6 18.9667 61.6C18.95 61.6 18.9333 61.59 18.9333 61.5767C18.9333 61.56 18.84 61.5067 18.7267 61.4533C18.61 61.4 18.4333 61.3367 18.3333 61.3133C18.2333 61.29 18.0733 61.27 17.9833 61.2733C17.89 61.2733 17.7733 61.2833 17.7167 61.29ZM27.6167 61.3133C27.5067 61.3367 27.3067 61.4167 27.17 61.4867C27.0033 61.5733 26.8567 61.6867 26.72 61.8333C26.6067 61.9533 26.4733 62.1333 26.4233 62.2333C26.3767 62.3333 26.3133 62.5067 26.2833 62.6167C26.2567 62.7267 26.2333 62.91 26.2333 63.0267C26.2333 63.14 26.25 63.3133 26.27 63.41C26.2933 63.5033 26.3467 63.6667 26.3933 63.7667C26.44 63.8667 26.5133 64.0033 26.56 64.0667C26.6067 64.13 26.7 64.24 26.7633 64.31C26.83 64.3767 26.9033 64.4333 26.9233 64.4333C26.9467 64.4333 26.9667 64.4467 26.9667 64.4667C26.9667 64.4867 26.99 64.5 27.0167 64.5C27.0433 64.5 27.0667 64.5133 27.0667 64.5333C27.0667 64.5533 27.0933 64.5733 27.1267 64.5833C27.1567 64.5933 27.22 64.6233 27.2667 64.65C27.3133 64.6767 27.39 64.7 27.4433 64.7C27.4933 64.7 27.5333 64.7133 27.5333 64.7333C27.5333 64.7533 27.7133 64.7633 28.0267 64.7567L28.5167 64.75C28.9167 64.5433 29.0333 64.4733 29.0333 64.46C29.0333 64.4433 29.0533 64.4333 29.0733 64.4333C29.0967 64.4333 29.17 64.3767 29.2367 64.31C29.3033 64.24 29.3933 64.13 29.4367 64.0667C29.48 64.0033 29.5433 63.89 29.5767 63.8167C29.61 63.7433 29.6633 63.6167 29.6933 63.5333C29.73 63.43 29.7467 63.27 29.75 63.0267C29.75 62.7833 29.7367 62.6567 29.7067 62.6267C29.6833 62.6033 29.6667 62.5433 29.6667 62.4933C29.6667 62.44 29.65 62.4 29.6333 62.4C29.6167 62.4 29.6 62.3767 29.6 62.35C29.6 62.3233 29.58 62.2667 29.5567 62.2267C29.5367 62.1867 29.49 62.1233 29.4567 62.0867C29.4267 62.0467 29.4 62.0067 29.4 61.9933C29.4 61.9767 29.3167 61.8833 29.2167 61.7833C29.1167 61.6833 29.0267 61.6 29.0167 61.6C29.0067 61.6 28.92 61.5533 28.8233 61.4967C28.73 61.44 28.5367 61.3633 28.4 61.33C28.2633 61.2933 28.0733 61.2667 27.9833 61.27C27.89 61.27 27.7267 61.29 27.6167 61.3133Z" fill="#88BB2F"/>
</g>
<path d="M130.217 44.1006C130.217 41.9847 130.122 40.5353 129.932 39.7524C129.741 38.9484 129.392 38.5464 128.884 38.5464C128.567 38.5464 128.281 38.6522 128.027 38.8638C128.07 39.2446 128.133 39.7524 128.218 40.3872C128.302 41.022 128.345 42.3761 128.345 44.4497V46.5127C128.345 47.9515 128.313 48.9989 128.25 49.6548C128.186 50.3107 128.133 50.8714 128.091 51.3369C128.07 51.5908 128.049 51.8447 128.027 52.0986C128.281 52.3102 128.567 52.416 128.884 52.416C129.392 52.416 129.741 52.0246 129.932 51.2417C130.122 50.4377 130.217 48.9777 130.217 46.8618V44.1006ZM118.379 66.0317C116.03 66.0317 114.211 65.4076 112.92 64.1592C111.65 62.9108 111.016 61.0277 111.016 58.5098V29.9453C111.016 28.3372 112.624 26.9831 115.84 25.8828C119.077 24.7614 122.685 24.2007 126.663 24.2007C133.666 24.2007 139.136 25.8934 143.071 29.2788C147.303 32.9181 149.419 38.3454 149.419 45.5605C149.419 52.0563 147.367 57.0921 143.262 60.668C139.178 64.2438 133.56 66.0317 126.409 66.0317H118.379ZM182.903 50.2896C182.903 51.813 183.072 53.0402 183.411 53.9712C183.749 54.9022 184.342 55.6322 185.188 56.1611C185.209 56.2669 185.22 56.4679 185.22 56.7642V57.3354C185.22 60.34 184.31 62.6781 182.49 64.3496C180.882 65.8307 178.893 66.5713 176.523 66.5713C174.915 66.5713 173.445 66.1904 172.112 65.4287C170.779 64.667 169.827 63.5667 169.255 62.1279C168.536 62.1279 168.176 62.4771 168.176 63.1753C168.176 63.7677 168.547 64.4342 169.287 65.1748C167.912 66.1058 165.838 66.5713 163.066 66.5713C159.152 66.5713 156.021 65.5133 153.672 63.3975C151.344 61.2604 150.181 58.2876 150.181 54.479C150.181 50.6493 151.418 47.687 153.894 45.5923C156.158 43.7091 159.089 42.7676 162.686 42.7676C163.913 42.7676 165.098 42.8522 166.24 43.0215C167.002 43.1696 167.415 43.2542 167.478 43.2754C167.542 43.0638 167.573 42.884 167.573 42.7358C167.573 42.1857 167.108 41.8154 166.177 41.625C165.246 41.4346 164.029 41.3394 162.527 41.3394C159.332 41.3394 156.602 41.9847 154.338 43.2754C153.302 41.5192 152.783 39.2975 152.783 36.6104C152.783 35.0869 152.974 33.9549 153.354 33.2144C154.878 32.5161 156.814 31.9025 159.163 31.3735C161.511 30.8234 163.987 30.5483 166.589 30.5483C171.964 30.5483 176.026 31.7227 178.777 34.0713C181.528 36.4199 182.903 39.7524 182.903 44.0688V50.2896ZM166.431 51.8447C165.542 51.8447 165.098 52.2467 165.098 53.0508C165.098 53.8125 165.616 54.1934 166.653 54.1934C167.372 54.1934 167.901 54.0241 168.24 53.6855C168.578 53.3258 168.748 52.7122 168.748 51.8447C168.748 51.8447 167.975 51.8447 166.431 51.8447ZM202.676 37.4355V50.0039C202.676 53.1566 203.438 55.209 204.961 56.1611C204.982 56.2669 204.993 56.4679 204.993 56.7642V57.3354C204.993 60.4458 204.146 62.7839 202.454 64.3496C200.888 65.8307 198.793 66.5713 196.169 66.5713C193.567 66.5713 191.419 65.8307 189.727 64.3496C187.59 62.4665 186.521 59.7158 186.521 56.0977V35.4678C186.902 35.1927 187.314 34.9705 187.759 34.8013C188.203 34.632 188.669 34.4204 189.155 34.1665C188.245 33.701 187.42 32.897 186.68 31.7544C185.939 30.5907 185.569 29.2365 185.569 27.6919C185.569 25.0259 186.447 22.8465 188.203 21.1538C189.959 19.4611 192.107 18.6147 194.646 18.6147C197.206 18.6147 199.343 19.4823 201.057 21.2173C202.792 22.9312 203.66 25.0894 203.66 27.6919C203.66 29.7866 203.004 31.6274 201.692 33.2144C200.38 34.7801 198.783 35.764 196.899 36.166C196.899 36.9701 197.206 37.3721 197.82 37.3721C198.899 37.3721 199.999 36.9489 201.121 36.1025C201.967 36.7585 202.485 37.2028 202.676 37.4355ZM222.607 27.6919V50.0039C222.607 53.1566 223.369 55.209 224.893 56.1611C224.914 56.2669 224.924 56.4679 224.924 56.7642V57.3354C224.924 60.3612 224.152 62.6569 222.607 64.2227C221.084 65.7884 218.915 66.5713 216.101 66.5713C213.287 66.5713 211.055 65.7884 209.404 64.2227C207.437 62.3607 206.453 59.5465 206.453 55.7803V22.8042C208.674 21.45 211.213 20.7729 214.07 20.7729C216.947 20.7729 219.084 21.3866 220.481 22.6138C221.899 23.8198 222.607 25.5125 222.607 27.6919ZM241.523 49.9722V50.7021C241.523 51.0407 241.534 51.284 241.555 51.4321C241.767 51.5379 242 51.5908 242.253 51.5908C242.867 51.5908 243.174 51.1253 243.174 50.1943C243.174 47.084 243.343 43.8573 243.682 40.5142C244.041 37.1499 244.422 34.5579 244.824 32.7383C246.538 31.4899 248.823 30.8657 251.68 30.8657C254.536 30.8657 256.737 31.4264 258.281 32.5479C259.847 33.6481 260.63 34.9811 260.63 36.5469C260.63 37.2028 260.238 39.9111 259.456 44.6719C258.588 49.5173 257.477 54.6165 256.123 59.9697C255.848 61.0488 255.351 62.5617 254.631 64.5083C253.933 66.4549 253.182 68.0736 252.378 69.3643C249.86 73.3633 246.75 75.8389 243.047 76.791C241.312 77.2354 239.566 77.4575 237.81 77.4575C234.403 77.4575 231.769 76.6112 229.907 74.9185C228.193 73.395 227.336 71.5013 227.336 69.2373C227.336 66.9945 228.003 64.8786 229.336 62.8896C229.653 62.805 230.235 62.7627 231.082 62.7627C231.928 62.7627 232.986 62.8685 234.255 63.0801C237.768 63.736 239.556 64.064 239.619 64.064C239.767 64.0851 239.926 64.1169 240.095 64.1592C240.286 64.1803 240.529 64.1909 240.825 64.1909C241.121 64.1909 241.375 64.1063 241.587 63.937C241.799 63.7677 241.904 63.4292 241.904 62.9214L234.414 61.4932C232.573 60.7314 230.976 59.134 229.622 56.7007C227.95 53.6961 226.818 49.623 226.226 44.4814C224.829 42.6618 224.131 40.4824 224.131 37.9434C224.131 35.4043 224.766 33.1932 226.035 31.3101H234.192C236.921 31.3101 238.963 32.0929 240.317 33.6587C241.312 34.8224 241.947 36.5257 242.222 38.7686C241.756 42.4502 241.523 46.1847 241.523 49.9722Z" fill="#333E48"/>
<path d="M279.451 44.7036C279.535 44.7671 279.779 44.7988 280.181 44.7988C280.583 44.7988 280.889 44.6401 281.101 44.3228C281.313 44.0054 281.418 43.487 281.418 42.7676V40.3555C281.418 39.5938 281.323 39.0542 281.133 38.7368C280.964 38.3983 280.667 38.229 280.244 38.229C279.842 38.229 279.567 38.2713 279.419 38.356C279.44 38.4618 279.451 38.6416 279.451 38.8955V44.7036ZM280.244 59.0493V63.9053C279.313 64.6882 278.001 65.3335 276.309 65.8413C274.616 66.328 272.849 66.5713 271.008 66.5713C268.385 66.5713 266.237 66.0635 264.565 65.0479C262.661 63.8841 261.709 62.202 261.709 60.0015V29.8501C261.709 29.173 262.164 28.4959 263.074 27.8188C264.005 27.1418 265.285 26.5282 266.914 25.978C270.405 24.7931 274.394 24.2007 278.879 24.2007C285.079 24.2007 290.02 25.7453 293.701 28.8345C297.383 31.9237 299.224 36.0814 299.224 41.3076C299.224 46.5127 297.563 50.5646 294.241 53.4634C291.046 56.214 286.613 57.5894 280.942 57.5894C279.652 57.5894 278.266 57.4412 276.785 57.145C275.325 56.8276 274.341 56.5526 273.833 56.3198C273.664 56.4891 273.579 56.7218 273.579 57.0181C273.579 58.0972 275.801 58.7743 280.244 59.0493ZM317.061 37.4355V50.0039C317.061 53.1566 317.822 55.209 319.346 56.1611C319.367 56.2669 319.377 56.4679 319.377 56.7642V57.3354C319.377 60.4458 318.531 62.7839 316.838 64.3496C315.273 65.8307 313.178 66.5713 310.554 66.5713C307.952 66.5713 305.804 65.8307 304.111 64.3496C301.974 62.4665 300.906 59.7158 300.906 56.0977V35.4678C301.287 35.1927 301.699 34.9705 302.144 34.8013C302.588 34.632 303.053 34.4204 303.54 34.1665C302.63 33.701 301.805 32.897 301.064 31.7544C300.324 30.5907 299.954 29.2365 299.954 27.6919C299.954 25.0259 300.832 22.8465 302.588 21.1538C304.344 19.4611 306.492 18.6147 309.031 18.6147C311.591 18.6147 313.728 19.4823 315.442 21.2173C317.177 22.9312 318.044 25.0894 318.044 27.6919C318.044 29.7866 317.389 31.6274 316.077 33.2144C314.765 34.7801 313.167 35.764 311.284 36.166C311.284 36.9701 311.591 37.3721 312.205 37.3721C313.284 37.3721 314.384 36.9489 315.505 36.1025C316.352 36.7585 316.87 37.2028 317.061 37.4355ZM337.849 66.9839C332.348 66.9839 327.957 65.2912 324.678 61.9058C321.419 58.4992 319.79 53.9395 319.79 48.2266C319.79 42.5137 321.641 37.9963 325.344 34.6743C328.645 31.7121 332.771 30.231 337.722 30.231C342.123 30.231 345.773 31.3206 348.672 33.5C351.571 35.6582 353.02 38.5993 353.02 42.3232C353.02 44.9046 352.216 47.0099 350.608 48.6392C349.021 50.2472 346.926 51.0513 344.324 51.0513C342.208 51.0513 340.441 50.4906 339.023 49.3691C337.627 48.2266 336.802 46.7454 336.548 44.9258C335.617 44.9258 335.151 45.2643 335.151 45.9414C335.151 47.486 335.913 48.9036 337.437 50.1943C339.193 51.7178 341.372 52.4795 343.975 52.4795C346.598 52.4795 348.767 51.9188 350.481 50.7974C351.539 52.4266 352.068 54.4049 352.068 56.7324C352.068 59.4408 350.904 61.7576 348.577 63.6831C345.911 65.8836 342.335 66.9839 337.849 66.9839ZM370.381 54.0664L368.857 54.7329C368.857 56.1506 369.132 57.6634 369.683 59.2715C370.148 60.7949 370.793 62.1491 371.619 63.334C369.524 65.4922 366.615 66.5713 362.891 66.5713C360.754 66.5713 358.902 66.0106 357.336 64.8892C355.517 63.6196 354.607 61.9375 354.607 59.8428V22.8042C355.623 22.2118 356.839 21.7251 358.257 21.3442C359.696 20.9634 361.145 20.7729 362.605 20.7729C365.038 20.7729 367.048 21.249 368.635 22.2012C370.434 23.3226 371.333 24.9307 371.333 27.0254V30.3896C371.333 33.2038 370.836 35.9544 369.841 38.6416C369.651 38.9167 369.312 39.3187 368.826 39.8477C368.339 40.3555 367.948 40.821 367.651 41.2441C367.376 41.6673 367.239 42.0376 367.239 42.355C367.239 42.6512 367.493 42.9263 368 43.1802C369.651 41.6356 370.942 39.9535 371.873 38.1338C372.825 36.3141 373.692 33.902 374.475 30.8975C374.75 30.8551 375.068 30.8022 375.427 30.7388C375.787 30.6753 376.379 30.5801 377.205 30.4531C378.051 30.305 378.643 30.231 378.982 30.231C382.24 30.231 384.779 30.9821 386.599 32.4844C388.419 33.9655 389.329 36.0073 389.329 38.6099C389.329 41.2124 388.503 43.4447 386.853 45.3066C385.33 46.9782 383.351 48.2371 380.918 49.0835C382.865 50.2261 385.319 51.0407 388.281 51.5273C389.424 53.6009 389.995 55.812 389.995 58.1606C389.995 60.4881 389.255 62.4347 387.773 64.0005C386.123 65.7144 383.838 66.5713 380.918 66.5713C378.019 66.5713 375.628 65.4604 373.745 63.2388C371.883 60.9959 370.762 57.9385 370.381 54.0664ZM408.562 41.1172C408.012 41.2865 407.737 41.6144 407.737 42.1011V42.2598C407.737 42.3656 407.747 42.429 407.769 42.4502C408.001 42.429 408.308 42.4185 408.689 42.4185H409.451C411.863 42.4185 414.116 42.7887 416.211 43.5293C418.327 44.2487 420.051 45.4124 421.384 47.0205C422.865 48.8402 423.606 51.1359 423.606 53.9077C423.606 58.2241 422.114 61.4826 419.131 63.6831C416.147 65.8836 412.159 66.9839 407.166 66.9839C402.172 66.9839 398.258 66.1587 395.422 64.5083C392.608 62.8579 391.201 60.4352 391.201 57.2402C391.201 56.0553 391.455 54.9762 391.963 54.0029C392.471 53.0085 393.042 52.3102 393.677 51.9082C394.84 52.8815 396.523 53.7279 398.723 54.4473C400.945 55.1455 403.293 55.4946 405.769 55.4946C406.764 55.4946 407.261 55.2196 407.261 54.6694C407.261 54.4155 407.229 54.2039 407.166 54.0347C407.017 54.0558 406.838 54.0664 406.626 54.0664H406.277C401.791 54.0664 398.205 53.1777 395.518 51.4004C392.471 49.3903 390.947 46.555 390.947 42.8945C390.947 39.234 392.312 36.2718 395.042 34.0078C398.067 31.5111 402.225 30.2627 407.515 30.2627C410.117 30.2627 412.54 30.5378 414.783 31.0879C417.047 31.638 418.983 32.368 420.591 33.2778C420.993 34.1453 421.194 35.4255 421.194 37.1182C421.194 39.6995 420.485 41.6779 419.067 43.0532C417.988 42.4608 416.666 41.9741 415.1 41.5933C413.556 41.1912 412.159 40.9902 410.911 40.9902C409.662 40.9902 408.879 41.0326 408.562 41.1172Z" fill="#88BB2F"/>
<defs>
<clipPath id="clip0_13_105">
<rect width="100" height="100" fill="white"/>
</clipPath>
</defs>
</svg>
