<svg width="30" height="31" viewBox="0 0 30 31" fill="none" xmlns="http://www.w3.org/2000/svg">
<path d="M23.75 4.67822C24.413 4.67822 25.0489 4.94161 25.5178 5.41046C25.9866 5.8793 26.25 6.51518 26.25 7.17822V24.6782C26.25 25.3413 25.9866 25.9771 25.5178 26.446C25.0489 26.9148 24.413 27.1782 23.75 27.1782H6.25C5.58696 27.1782 4.95107 26.9148 4.48223 26.446C4.01339 25.9771 3.75 25.3413 3.75 24.6782V7.17822C3.75 6.51518 4.01339 5.8793 4.48223 5.41046C4.95107 4.94161 5.58696 4.67822 6.25 4.67822H23.75ZM23.125 24.0532V17.4282C23.125 16.3475 22.6957 15.311 21.9315 14.5468C21.1672 13.7826 20.1308 13.3532 19.05 13.3532C17.9875 13.3532 16.75 14.0032 16.15 14.9782V13.5907H12.6625V24.0532H16.15V17.8907C16.15 16.9282 16.925 16.1407 17.8875 16.1407C18.3516 16.1407 18.7967 16.3251 19.1249 16.6533C19.4531 16.9815 19.6375 17.4266 19.6375 17.8907V24.0532H23.125ZM8.6 11.6282C9.15695 11.6282 9.6911 11.407 10.0849 11.0131C10.4788 10.6193 10.7 10.0852 10.7 9.52822C10.7 8.36572 9.7625 7.41572 8.6 7.41572C8.03973 7.41572 7.50241 7.63829 7.10624 8.03446C6.71007 8.43063 6.4875 8.96795 6.4875 9.52822C6.4875 10.6907 7.4375 11.6282 8.6 11.6282ZM10.3375 24.0532V13.5907H6.875V24.0532H10.3375Z" fill="#333E48"/>
</svg>
