<svg width="30" height="30" viewBox="0 0 30 30" fill="none" xmlns="http://www.w3.org/2000/svg">
<path d="M12 29C13.1046 29 14 28.1046 14 27C14 25.8954 13.1046 25 12 25C10.8954 25 10 25.8954 10 27C10 28.1046 10.8954 29 12 29Z" fill="#333E48"/>
<path d="M26 29C27.1046 29 28 28.1046 28 27C28 25.8954 27.1046 25 26 25C24.8954 25 24 25.8954 24 27C24 28.1046 24.8954 29 26 29Z" fill="#333E48"/>
<path d="M1.25 1.25H6.25L9.6 17.9875C9.71431 18.563 10.0274 19.0799 10.4844 19.4479C10.9415 19.8158 11.5134 20.0112 12.1 20H24.25C24.8366 20.0112 25.4085 19.8158 25.8656 19.4479C26.3226 19.0799 26.6357 18.563 26.75 17.9875L28.75 7.5" stroke="#333E48" stroke-width="2" stroke-linecap="round" stroke-linejoin="round"/>
<path d="M22.5 11.25H15" stroke="#333E48" stroke-width="2"/>
<path d="M18.75 15L18.75 7.5" stroke="#333E48" stroke-width="2"/>
</svg>
