<svg width="31" height="31" viewBox="0 0 31 31" fill="none" xmlns="http://www.w3.org/2000/svg">
<path d="M16.6184 3.42822C18.0246 3.43197 18.7384 3.43947 19.3546 3.45697L19.5971 3.46572C19.8771 3.47572 20.1534 3.48822 20.4871 3.50322C21.8171 3.56572 22.7246 3.77572 23.5209 4.08447C24.3459 4.40197 25.0409 4.83197 25.7359 5.52572C26.3715 6.15059 26.8633 6.90646 27.1771 7.74072C27.4859 8.53697 27.6959 9.44447 27.7584 10.7757C27.7734 11.1082 27.7859 11.3845 27.7959 11.6657L27.8034 11.9082C27.8221 12.5232 27.8296 13.237 27.8321 14.6432L27.8334 15.5757V17.2132C27.8364 18.125 27.8268 19.0367 27.8046 19.9482L27.7971 20.1907C27.7871 20.472 27.7746 20.7482 27.7596 21.0807C27.6971 22.412 27.4846 23.3182 27.1771 24.1157C26.8642 24.9504 26.3723 25.7065 25.7359 26.3307C25.1108 26.9661 24.355 27.4579 23.5209 27.772C22.7246 28.0807 21.8171 28.2907 20.4871 28.3532C20.1905 28.3672 19.8938 28.3797 19.5971 28.3907L19.3546 28.3982C18.7384 28.4157 18.0246 28.4245 16.6184 28.427L15.6859 28.4282H14.0496C13.1374 28.4314 12.2253 28.4218 11.3134 28.3995L11.0709 28.392C10.7741 28.3807 10.4775 28.3678 10.1809 28.3532C8.85086 28.2907 7.94336 28.0807 7.14586 27.772C6.3117 27.4587 5.55613 26.9668 4.93211 26.3307C4.29592 25.7061 3.80364 24.9502 3.48961 24.1157C3.18086 23.3195 2.97086 22.412 2.90836 21.0807C2.89444 20.7841 2.88194 20.4874 2.87086 20.1907L2.86461 19.9482C2.84158 19.0367 2.83116 18.125 2.83336 17.2132V14.6432C2.82987 13.7315 2.83904 12.8197 2.86086 11.9082L2.86961 11.6657C2.87961 11.3845 2.89211 11.1082 2.90711 10.7757C2.96961 9.44447 3.17961 8.53822 3.48836 7.74072C3.80226 6.9056 4.29551 6.1495 4.93336 5.52572C5.55723 4.89007 6.31229 4.39821 7.14586 4.08447C7.94336 3.77572 8.84961 3.56572 10.1809 3.50322C10.5134 3.48822 10.7909 3.47572 11.0709 3.46572L11.3134 3.45822C12.2249 3.43601 13.1366 3.42643 14.0484 3.42947L16.6184 3.42822ZM15.3334 9.67822C13.6758 9.67822 12.086 10.3367 10.9139 11.5088C9.74184 12.6809 9.08336 14.2706 9.08336 15.9282C9.08336 17.5858 9.74184 19.1755 10.9139 20.3476C12.086 21.5197 13.6758 22.1782 15.3334 22.1782C16.991 22.1782 18.5807 21.5197 19.7528 20.3476C20.9249 19.1755 21.5834 17.5858 21.5834 15.9282C21.5834 14.2706 20.9249 12.6809 19.7528 11.5088C18.5807 10.3367 16.991 9.67822 15.3334 9.67822ZM15.3334 12.1782C15.8258 12.1781 16.3135 12.2751 16.7685 12.4634C17.2235 12.6518 17.6369 12.928 17.9852 13.2761C18.3335 13.6243 18.6098 14.0376 18.7983 14.4926C18.9868 14.9475 19.0839 15.4351 19.084 15.9276C19.0841 16.4201 18.9872 16.9077 18.7988 17.3627C18.6104 17.8177 18.3342 18.2312 17.9861 18.5794C17.6379 18.9277 17.2246 19.204 16.7696 19.3925C16.3147 19.5811 15.8271 19.6781 15.3346 19.6782C14.3401 19.6782 13.3862 19.2831 12.683 18.5799C11.9797 17.8766 11.5846 16.9228 11.5846 15.9282C11.5846 14.9337 11.9797 13.9798 12.683 13.2766C13.3862 12.5733 14.3401 12.1782 15.3346 12.1782M21.8971 7.80322C21.4827 7.80322 21.0853 7.96784 20.7923 8.26087C20.4992 8.55389 20.3346 8.95132 20.3346 9.36572C20.3346 9.78012 20.4992 10.1776 20.7923 10.4706C21.0853 10.7636 21.4827 10.9282 21.8971 10.9282C22.3115 10.9282 22.7089 10.7636 23.002 10.4706C23.295 10.1776 23.4596 9.78012 23.4596 9.36572C23.4596 8.95132 23.295 8.55389 23.002 8.26087C22.7089 7.96784 22.3115 7.80322 21.8971 7.80322Z" fill="#333E48"/>
</svg>
